<svg width="44" height="44" viewBox="0 0 44 44" fill="none" xmlns="http://www.w3.org/2000/svg">
<g clip-path="url(#clip0_29_202)">
<path d="M44.0004 22.135C44.0004 9.9085 34.1499 -0.00250244 22.0004 -0.00250244C9.84537 0.000247559 -0.00512695 9.9085 -0.00512695 22.1377C-0.00512695 33.1845 8.04137 42.342 18.5574 44.003V28.5343H12.9749V22.1377H18.5629V17.2565C18.5629 11.7097 21.8491 8.64625 26.8734 8.64625C29.2824 8.64625 31.7986 9.078 31.7986 9.078V14.523H29.0239C26.2931 14.523 25.4406 16.2307 25.4406 17.9825V22.135H31.5401L30.5666 28.5315H25.4379V44.0002C35.9539 42.3392 44.0004 33.1817 44.0004 22.135Z" fill="white"/>
</g>
<defs>
<clipPath id="clip0_29_202">
<rect width="44" height="44" fill="white"/>
</clipPath>
</defs>
</svg>
