<svg width="254" height="65" viewBox="0 0 254 65" fill="none" xmlns="http://www.w3.org/2000/svg">
<path d="M60.5435 27.63C55.7514 22.8319 49.056 23.0101 43.1547 23.1746L43.1684 23.6956L43.1273 23.1883C42.0731 23.2158 41.0735 23.2158 40.1014 23.2432H32.872C27.5459 23.2432 23.2055 27.5888 23.2055 32.9215V49.5365C23.0823 53.704 24.7116 57.7618 27.6691 60.6954C30.5718 63.5605 34.3918 65 38.2256 65C42.0183 65 45.8247 63.588 48.7137 60.7503L48.8369 60.6269C50.9318 58.5294 52.3421 55.8974 52.9308 53.0048C55.7924 52.4154 58.4076 51.0171 60.5299 48.9059C63.3504 46.0819 64.9113 42.312 64.925 38.3091C64.9387 34.265 63.3915 30.4814 60.5435 27.63ZM58.0927 46.4521L57.6956 46.123C56.3812 47.4254 54.7792 48.3713 53.013 48.8785V40.6807C53.0814 38.3913 52.1093 36.2116 50.3704 34.7174C47.5362 32.2772 43.2916 32.2909 40.4711 34.7448C39.3894 35.6907 38.6227 36.8834 38.1982 38.2405C36.8564 38.6518 35.6515 39.4332 34.7205 40.5025C32.2696 43.3128 32.2422 47.5625 34.6657 50.4002C37.0892 53.2242 40.5806 53.1419 43.3875 53.0734C43.7982 53.0597 44.209 53.0597 44.6061 53.0597H48.8232C48.2892 54.8966 47.3034 56.5417 45.9342 57.8851C41.6623 62.0663 34.7205 62.0526 30.4622 57.844C28.2852 55.6917 27.0803 52.6895 27.1762 49.6051V32.8941C27.1762 31.3725 27.7649 29.9467 28.8466 28.8638C29.9283 27.7808 31.3522 27.1913 32.872 27.1913H40.0877C41.1146 27.1913 42.1826 27.1639 43.2506 27.1365C48.6041 26.9857 54.1357 26.8349 57.723 30.4266C59.8042 32.5103 60.9543 35.3069 60.9543 38.2817C60.9406 41.229 59.8042 43.9982 57.723 46.0682L58.0927 46.4521ZM49.0423 49.0978H44.6198C44.1953 49.0978 43.7572 49.1115 43.3053 49.1115C41.0325 49.1664 38.8828 49.2212 37.6916 47.8229C36.5415 46.4795 36.5552 44.4643 37.719 43.1345C37.7738 43.066 37.8285 43.0112 37.8833 42.9563C38.4721 42.3669 39.2525 41.9967 40.074 41.9145L41.7034 41.75L41.8677 40.1186C41.9635 39.2001 42.388 38.3639 43.0863 37.747C43.7572 37.1575 44.6061 36.8697 45.4413 36.8697C46.2765 36.8697 47.1117 37.1575 47.7826 37.7333C48.6178 38.4462 49.0697 39.488 49.0423 40.5984V49.0978Z" fill="white"/>
<path d="M24.3556 21.2692C25.4236 21.6668 26.4779 21.8587 27.5048 21.8587C28.915 21.8587 30.2569 21.4885 31.4344 20.7346C31.8862 20.4467 32.3107 20.104 32.694 19.7338C33.9948 18.4315 34.7889 16.6494 34.9669 14.5793C35.1997 12.0844 34.5151 9.42487 33.05 7.09438C31.585 4.7639 29.4901 2.99547 27.1488 2.11812C24.6158 1.17221 22.1101 1.36414 20.07 2.63905C18.0984 3.87283 16.8661 5.99769 16.5649 8.60234C16.2773 11.1659 16.9482 13.8939 18.4544 16.2929C19.9057 18.6371 22.0143 20.4056 24.3556 21.2692ZM29.3121 17.3759C28.3537 17.9791 27.0803 18.0477 25.7385 17.5404C24.205 16.9647 22.8084 15.772 21.8089 14.1681C20.07 11.3989 19.9879 8.08141 21.6035 6.46378C21.7815 6.29928 21.9732 6.13477 22.1649 6.01139C23.137 5.40821 24.3967 5.33967 25.7385 5.84689C27.272 6.42266 28.6686 7.61531 29.6681 9.21923C30.6676 10.8232 31.1468 12.5916 30.9962 14.2229C30.8867 15.6486 30.2842 16.7727 29.3121 17.3759Z" fill="white"/>
<path d="M45.6602 21.2692C45.9478 21.2966 46.2216 21.324 46.5091 21.324C48.5492 21.324 50.5346 20.4466 52.1776 18.8016C53.985 16.992 55.1625 14.4696 55.4911 11.6868C56.1894 5.83314 52.9033 0.610119 48.1932 0.0480609C45.7972 -0.226114 43.4558 0.678662 41.5663 2.61159C39.8274 4.40744 38.691 6.90242 38.3624 9.64417C38.0338 12.3859 38.5541 15.0728 39.8274 17.2251C41.1966 19.5556 43.2641 20.995 45.6602 21.2692ZM42.3057 10.1103C42.5248 8.23217 43.2778 6.55971 44.4827 5.31221C45.4685 4.32518 46.605 3.85909 47.714 3.99617C50.2607 4.29777 51.9722 7.53303 51.5341 11.207C51.315 13.0165 50.6167 14.6479 49.5624 15.8131C48.5492 16.9235 47.317 17.4719 46.1258 17.3211C44.9893 17.184 43.9761 16.43 43.2368 15.1962C42.4152 13.7979 42.0729 11.9884 42.3057 10.1103Z" fill="white"/>
<path d="M16.2773 18.4589C11.2934 15.3196 5.17309 16.0461 2.64007 20.0765C1.35302 22.1191 1.17503 24.6278 2.11977 27.1639C2.99606 29.5081 4.76233 31.6055 7.08997 33.0724C9.13007 34.361 11.4166 35.0464 13.621 35.0464C13.936 35.0464 14.2509 35.0327 14.5658 35.0053C16.6333 34.8134 18.4132 34.032 19.714 32.7296C20.0974 32.3458 20.426 31.9208 20.7135 31.4684C22.0005 29.4258 22.1785 26.9034 21.2338 24.381C20.3849 22.0368 18.6186 19.9257 16.2773 18.4589ZM17.359 29.3436C16.7565 30.3032 15.6338 30.9064 14.2098 31.0435C12.5941 31.1943 10.8142 30.7145 9.21222 29.7137C7.61026 28.713 6.41906 27.3147 5.844 25.7793C5.33739 24.4359 5.40585 23.161 6.0083 22.2013C6.13153 21.9957 6.29583 21.8038 6.46014 21.6393C7.24058 20.8579 8.4044 20.4741 9.70514 20.4741C11.1291 20.4741 12.7174 20.9264 14.155 21.8449C15.757 22.8457 16.9482 24.2439 17.5233 25.7793C18.0299 27.1091 17.9751 28.384 17.359 29.3436Z" fill="white"/>
<path d="M17.2084 39.8582C15.0587 38.5833 12.3614 38.0624 9.63671 38.3914C6.89832 38.7204 4.40637 39.8582 2.61272 41.5992C0.668459 43.4773 -0.235211 45.8352 0.0523211 48.2342C0.558925 52.5388 4.92667 55.6369 10.1159 55.6369C10.6362 55.6369 11.1565 55.6095 11.6768 55.541C14.4563 55.212 16.9756 54.033 18.783 52.2235C20.6588 50.3454 21.5351 48.0286 21.2612 45.6981C20.9737 43.3128 19.536 41.2428 17.2084 39.8582ZM17.3042 46.1779C17.4411 47.3843 16.9072 48.6044 15.7981 49.6188C14.6343 50.6744 13.0049 51.3872 11.1976 51.5929C7.52815 52.0315 4.29684 50.3179 3.99562 47.7681C3.8587 46.6577 4.33791 45.5062 5.3785 44.4643C6.54232 43.3265 8.22644 42.5725 10.1022 42.3532C10.4856 42.3121 10.8553 42.2846 11.225 42.2846C12.69 42.2846 14.0592 42.6274 15.182 43.2991C16.4142 44.0256 17.1673 45.0401 17.3042 46.1779Z" fill="white"/>
<path d="M93.8835 29.4533C92.8292 28.3977 91.5833 27.5478 90.173 26.9446C88.7627 26.3414 87.2292 26.0261 85.6273 26.0261C84.0253 26.0261 82.4918 26.3277 81.0815 26.9446C79.6712 27.5478 78.4253 28.3977 77.371 29.4533C76.3167 30.5089 75.4678 31.7564 74.8654 33.1684C74.2629 34.5804 73.948 36.1157 73.948 37.7197V54.4991C73.948 55.0201 74.1534 55.5136 74.5368 55.8974C74.9338 56.295 75.3993 56.4869 75.9333 56.4869C76.4673 56.4869 76.9329 56.2813 77.3299 55.8974C77.7133 55.5136 77.9187 55.0338 77.9187 54.4991V46.3425C78.6444 46.9731 79.5617 47.5625 80.6434 48.1383C82.3275 48.9882 84.0116 49.4132 85.6273 49.4132C87.2292 49.4132 88.7627 49.1116 90.173 48.4947C91.5833 47.8915 92.8292 47.0416 93.8835 45.986C94.9378 44.9305 95.7867 43.683 96.3892 42.271C96.9916 40.859 97.3065 39.3236 97.3065 37.7197C97.3065 36.1157 97.0053 34.5804 96.3892 33.1684C95.7867 31.7564 94.9378 30.5089 93.8835 29.4533ZM82.6424 44.8345C81.7114 44.4369 80.8761 43.8749 80.1778 43.1757C79.4796 42.4766 78.9182 41.6541 78.5211 40.7082C78.124 39.776 77.9187 38.7752 77.9187 37.7197C77.9187 36.6641 78.124 35.6634 78.5211 34.7312C78.9182 33.799 79.4796 32.9627 80.1778 32.2636C80.8761 31.5644 81.7114 31.0024 82.6424 30.6048C83.5735 30.2073 84.5867 30.0017 85.6273 30.0017C86.6678 30.0017 87.6811 30.2073 88.6121 30.6048C89.5432 31.0024 90.3784 31.5644 91.0767 32.2636C91.775 32.9627 92.3363 33.799 92.7334 34.7312C93.1305 35.6634 93.3358 36.6778 93.3358 37.7197C93.3358 38.7615 93.1305 39.776 92.7334 40.7082C92.3363 41.6541 91.775 42.4766 91.0767 43.1757C90.3784 43.8749 89.5432 44.4369 88.6121 44.8345C86.75 45.6296 84.5045 45.6296 82.6424 44.8345Z" fill="white"/>
<path d="M123.937 34.6626C123.595 33.3877 123.061 32.2088 122.322 31.1532C121.596 30.0976 120.72 29.1791 119.734 28.4114C118.748 27.6438 117.639 27.0543 116.434 26.643C115.229 26.2318 113.97 26.0261 112.669 26.0261C111.067 26.0261 109.533 26.3277 108.123 26.9446C106.713 27.5478 105.467 28.3977 104.413 29.4533C103.358 30.5089 102.509 31.7564 101.907 33.1684C101.305 34.5804 100.99 36.1157 100.99 37.7197C100.99 39.3236 101.291 40.859 101.907 42.271C102.509 43.683 103.358 44.9305 104.413 45.986C105.467 47.0416 106.713 47.8915 108.123 48.4947C109.533 49.0979 111.067 49.4132 112.669 49.4132C114.408 49.4132 116.01 49.0842 117.42 48.4262C118.817 47.7819 119.994 46.9593 120.912 46.0134C121.446 45.4788 121.87 44.999 122.158 44.5877C122.513 44.0942 122.691 43.6144 122.691 43.1346C122.691 42.6 122.486 42.1339 122.103 41.7363C121.706 41.3388 121.24 41.1468 120.706 41.1468C120.282 41.1468 119.898 41.2839 119.583 41.5444C119.323 41.7637 119.104 42.0105 118.954 42.2435C118.255 43.2169 117.338 43.9983 116.243 44.574C115.147 45.1498 113.942 45.4377 112.669 45.4377C111.615 45.4377 110.615 45.232 109.684 44.8345C108.753 44.4369 107.918 43.8749 107.22 43.1757C106.521 42.4766 105.96 41.6541 105.563 40.7082C105.166 39.776 104.96 38.7752 104.96 37.7197V37.4455H122.075C122.596 37.4455 123.047 37.3221 123.417 37.0616C123.732 36.856 124.102 36.431 124.102 35.6085C124.102 35.4303 124.074 35.211 124.006 34.9368C123.992 34.8271 123.965 34.7175 123.937 34.6626ZM112.683 30.0017C114.052 30.0017 115.394 30.3718 116.681 31.1121C117.68 31.6878 118.488 32.4829 119.104 33.4562H106.22C106.508 33.0176 106.822 32.62 107.178 32.291C107.754 31.7427 108.37 31.304 109.013 30.9613C109.657 30.6185 110.3 30.3718 110.93 30.221C111.574 30.0839 112.162 30.0017 112.683 30.0017Z" fill="white"/>
<path d="M137.972 27.0817H134.672V20.9813C134.672 20.4467 134.467 19.9806 134.083 19.583C133.686 19.1855 133.221 18.9935 132.687 18.9935C132.153 18.9935 131.687 19.1992 131.29 19.583C130.893 19.9806 130.701 20.4467 130.701 20.9813V27.0817H130.633C130.099 27.0817 129.633 27.2873 129.236 27.6712C128.839 28.0687 128.647 28.5348 128.647 29.0694C128.647 29.6041 128.853 30.0702 129.236 30.4677C129.633 30.8653 130.099 31.0572 130.633 31.0572H130.701V46.4521C130.701 46.9867 130.907 47.4528 131.29 47.8504C131.687 48.2479 132.153 48.4399 132.687 48.4399C133.221 48.4399 133.686 48.2342 134.083 47.8504C134.48 47.4528 134.672 46.9867 134.672 46.4521V31.0572H137.972C138.506 31.0572 138.971 30.8516 139.368 30.4677C139.765 30.0702 139.957 29.6041 139.957 29.0694C139.957 28.5348 139.752 28.0687 139.368 27.6712C138.971 27.2736 138.506 27.0817 137.972 27.0817Z" fill="white"/>
<path d="M158.729 37.7059C158.072 37.1439 157.291 36.6641 156.401 36.2802C155.552 35.9101 154.621 35.5674 153.635 35.2658C153.101 35.1013 152.581 34.9368 152.088 34.7449C151.609 34.5666 151.171 34.361 150.774 34.128C150.418 33.9086 150.13 33.6619 149.925 33.3603C149.733 33.0998 149.651 32.7708 149.651 32.3732C149.651 32.0579 149.733 31.7701 149.898 31.4548C150.076 31.1395 150.322 30.8516 150.637 30.5911C150.965 30.3306 151.349 30.125 151.787 29.9742C152.225 29.8234 152.677 29.7412 153.156 29.7412C153.855 29.7412 154.416 29.8645 154.827 30.1113C155.237 30.3581 155.539 30.6459 155.73 30.9887C156.004 31.4685 156.292 31.7838 156.62 31.9483C156.922 32.0991 157.25 32.1676 157.606 32.1676C158.236 32.1676 158.715 31.9757 159.03 31.5918C159.318 31.2491 159.468 30.8242 159.468 30.3306C159.468 29.796 159.29 29.2477 158.948 28.713C158.893 28.6033 158.77 28.4251 158.428 28.055C158.14 27.7397 157.77 27.4381 157.264 27.1365C156.785 26.8486 156.21 26.5882 155.539 26.3551C154.854 26.1221 154.046 25.9987 153.156 25.9987C152.17 25.9987 151.226 26.1632 150.336 26.4922C149.446 26.8212 148.638 27.2873 147.967 27.8631C147.282 28.4525 146.721 29.138 146.31 29.9057C145.886 30.7008 145.68 31.537 145.68 32.4144C145.68 33.4837 145.899 34.4021 146.324 35.1561C146.735 35.8964 147.282 36.527 147.953 37.0342C148.597 37.5277 149.336 37.9253 150.158 38.2406C150.938 38.5422 151.746 38.8026 152.54 39.022C153.156 39.1865 153.745 39.351 154.279 39.5292C154.786 39.6937 155.251 39.9267 155.648 40.2009C156.018 40.4614 156.305 40.7767 156.524 41.1605C156.73 41.5307 156.839 42.0379 156.839 42.6548C156.839 43.1894 156.73 43.6144 156.524 43.9434C156.305 44.2861 156.018 44.574 155.689 44.7796C155.347 44.999 154.95 45.1498 154.525 45.2457C152.951 45.5885 151.609 45.3554 150.623 44.7385C149.939 44.3135 149.336 43.5047 148.843 42.3258C148.706 42.0105 148.515 41.75 148.282 41.5307C147.994 41.2702 147.625 41.1331 147.187 41.1331C146.625 41.1331 146.146 41.3387 145.79 41.7226C145.448 42.1064 145.283 42.5725 145.283 43.1209C145.283 43.6281 145.448 44.1765 145.776 44.7933C146.077 45.3554 146.433 45.8763 146.831 46.3698C147.515 47.2061 148.378 47.9189 149.391 48.481C150.432 49.0705 151.705 49.3584 153.17 49.3584C154.197 49.3584 155.183 49.2076 156.1 48.9334C157.045 48.6455 157.88 48.2068 158.578 47.631C159.277 47.0553 159.852 46.3561 160.276 45.5336C160.7 44.6974 160.92 43.7378 160.92 42.6822C160.92 41.5581 160.728 40.5573 160.344 39.7485C159.947 38.9946 159.413 38.2817 158.729 37.7059Z" fill="white"/>
<path d="M185.36 29.4533C184.305 28.3977 183.059 27.5478 181.649 26.9446C180.239 26.3414 178.705 26.0261 177.103 26.0261C175.501 26.0261 173.968 26.3277 172.558 26.9446C171.147 27.5478 169.901 28.3977 168.847 29.4533C167.793 30.5089 166.944 31.7564 166.341 33.1684C165.739 34.5804 165.424 36.1157 165.424 37.7197V54.4991C165.424 55.0201 165.629 55.5136 166.013 55.8974C166.41 56.295 166.875 56.4869 167.409 56.4869C167.943 56.4869 168.409 56.2813 168.806 55.8974C169.189 55.5136 169.395 55.0338 169.395 54.4991V46.3425C170.12 46.9731 171.038 47.5625 172.119 48.1383C173.804 48.9882 175.488 49.4132 177.103 49.4132C178.705 49.4132 180.239 49.1116 181.649 48.4947C183.059 47.8915 184.305 47.0416 185.36 45.986C186.414 44.9305 187.263 43.683 187.865 42.271C188.468 40.859 188.783 39.3236 188.783 37.7197C188.783 36.1157 188.481 34.5804 187.865 33.1684C187.263 31.7564 186.414 30.5089 185.36 29.4533ZM174.118 44.8345C173.187 44.4369 172.352 43.8749 171.654 43.1757C170.956 42.4766 170.394 41.6541 169.997 40.7082C169.6 39.776 169.395 38.7752 169.395 37.7197C169.395 36.6641 169.6 35.6634 169.997 34.7312C170.394 33.799 170.956 32.9627 171.654 32.2636C172.352 31.5644 173.187 31.0024 174.118 30.6048C175.05 30.2073 176.063 30.0017 177.103 30.0017C178.144 30.0017 179.157 30.2073 180.088 30.6048C181.019 31.0024 181.854 31.5644 182.553 32.2636C183.251 32.9627 183.812 33.799 184.209 34.7312C184.607 35.6634 184.812 36.6778 184.812 37.7197C184.812 38.7615 184.607 39.776 184.209 40.7082C183.812 41.6541 183.251 42.4766 182.553 43.1757C181.854 43.8749 181.019 44.4369 180.088 44.8345C178.226 45.6296 175.981 45.6296 174.118 44.8345Z" fill="white"/>
<path d="M196.532 20.1177C195.889 20.1177 195.341 20.337 194.917 20.7757C194.479 21.2144 194.26 21.749 194.26 22.3933C194.26 23.0376 194.479 23.5723 194.917 24.011C195.355 24.4496 195.889 24.669 196.532 24.669C197.176 24.669 197.71 24.4496 198.148 24.011C198.586 23.5723 198.805 23.0376 198.805 22.3933C198.805 21.749 198.586 21.2007 198.148 20.7757C197.71 20.337 197.176 20.1177 196.532 20.1177Z" fill="white"/>
<path d="M196.491 27.0816C195.957 27.0816 195.492 27.2873 195.095 27.6711C194.698 28.0687 194.506 28.5348 194.506 29.0694V46.4521C194.506 46.9867 194.711 47.4528 195.095 47.8503C195.492 48.2479 195.957 48.4398 196.491 48.4398C197.025 48.4398 197.491 48.2342 197.888 47.8503C198.285 47.4528 198.477 46.9867 198.477 46.4521V29.0694C198.477 28.5348 198.271 28.0687 197.888 27.6711C197.491 27.2736 197.025 27.0816 196.491 27.0816Z" fill="white"/>
<path d="M214.346 27.0817H211.046V20.9813C211.046 20.4604 210.84 19.9668 210.457 19.583C210.074 19.1992 209.594 18.9935 209.06 18.9935C208.527 18.9935 208.061 19.1992 207.664 19.583C207.267 19.9806 207.075 20.4467 207.075 20.9813V27.0817H207.007C206.473 27.0817 206.007 27.2873 205.61 27.6712C205.227 28.055 205.021 28.5485 205.021 29.0694C205.021 29.6041 205.227 30.0702 205.61 30.4677C206.007 30.8653 206.473 31.0572 207.007 31.0572H207.075V46.4521C207.075 46.9867 207.281 47.4528 207.664 47.8504C208.061 48.2479 208.527 48.4399 209.06 48.4399C209.581 48.4399 210.074 48.2342 210.457 47.8504C210.854 47.4528 211.046 46.9867 211.046 46.4521V31.0572H214.346C214.88 31.0572 215.345 30.8516 215.742 30.4677C216.139 30.0702 216.331 29.6041 216.331 29.0694C216.331 28.5348 216.126 28.0687 215.742 27.6712C215.345 27.2736 214.88 27.0817 214.346 27.0817Z" fill="white"/>
<path d="M240.374 29.4533C239.32 28.3977 238.074 27.5478 236.663 26.9446C235.253 26.3414 233.72 26.0261 232.118 26.0261C230.516 26.0261 228.982 26.3277 227.572 26.9446C226.162 27.5478 224.916 28.3977 223.861 29.4533C222.807 30.5089 221.958 31.7564 221.356 33.1684C220.753 34.5804 220.438 36.1157 220.438 37.7197C220.438 39.3236 220.74 40.859 221.356 42.271C221.958 43.683 222.807 44.9305 223.861 45.986C224.916 47.0416 226.162 47.8915 227.572 48.4947C228.982 49.0979 230.516 49.4132 232.118 49.4132C233.72 49.4132 235.253 49.1116 236.663 48.4947C237.841 47.9875 238.895 47.3295 239.826 46.507C239.84 47.0142 240.045 47.4666 240.415 47.8504C240.812 48.248 241.278 48.4399 241.812 48.4399C242.332 48.4399 242.825 48.2343 243.208 47.8504C243.605 47.4529 243.797 46.9868 243.797 46.4521V37.7197C243.797 36.1157 243.496 34.5804 242.88 33.1684C242.277 31.7564 241.428 30.5089 240.374 29.4533ZM229.133 44.8345C228.202 44.4369 227.367 43.8749 226.668 43.1757C225.97 42.4766 225.409 41.6404 225.012 40.7082C224.615 39.776 224.409 38.7752 224.409 37.7197C224.409 36.6641 224.615 35.6634 225.012 34.7312C225.409 33.799 225.97 32.9627 226.668 32.2636C227.367 31.5644 228.202 31.0024 229.133 30.6048C230.064 30.2073 231.077 30.0017 232.118 30.0017C233.172 30.0017 234.172 30.2073 235.103 30.6048C236.034 31.0024 236.869 31.5644 237.567 32.2636C238.265 32.9627 238.827 33.799 239.224 34.7312C239.621 35.6634 239.826 36.6778 239.826 37.7197C239.826 38.7615 239.621 39.776 239.224 40.7082C238.827 41.6541 238.265 42.4766 237.567 43.1757C236.869 43.8749 236.034 44.4369 235.103 44.8345C233.227 45.6296 230.995 45.6296 229.133 44.8345Z" fill="white"/>
<path d="M253.299 19.583C252.916 19.1992 252.437 18.9935 251.903 18.9935C251.369 18.9935 250.903 19.1992 250.506 19.583C250.123 19.9668 249.917 20.4604 249.917 20.9813V46.4521C249.917 46.9867 250.123 47.4528 250.506 47.8504C250.903 48.2479 251.369 48.4399 251.903 48.4399C252.423 48.4399 252.916 48.2342 253.299 47.8504C253.696 47.4528 253.888 46.9867 253.888 46.4521V20.9813C253.888 20.4467 253.696 19.9806 253.299 19.583Z" fill="white"/>
</svg>
