<svg width="45" height="45" viewBox="0 0 45 45" fill="none" xmlns="http://www.w3.org/2000/svg">
<path d="M4.21875 5.22863V39.7697C4.21898 39.8446 4.24133 39.9178 4.283 39.9801C4.32467 40.0424 4.3838 40.091 4.45298 40.1198C4.52215 40.1486 4.5983 40.1564 4.67186 40.1421C4.74543 40.1278 4.81314 40.0921 4.8665 40.0395L22.8516 22.5L4.8665 4.95881C4.81314 4.9062 4.74543 4.87051 4.67186 4.85622C4.5983 4.84194 4.52215 4.84969 4.45298 4.8785C4.3838 4.90732 4.32467 4.95592 4.283 5.01821C4.24133 5.08049 4.21898 5.1537 4.21875 5.22863V5.22863Z" fill="white"/>
<path d="M30.3926 15.293L7.84167 2.86877L7.82761 2.86086C7.43913 2.64992 7.06999 3.17551 7.38815 3.48137L25.0656 20.3845L30.3926 15.293Z" fill="white"/>
<path d="M7.38991 41.5186C7.06999 41.8245 7.43913 42.3501 7.82937 42.1392L7.84343 42.1312L30.3927 29.707L25.0656 24.6138L7.38991 41.5186Z" fill="white"/>
<path d="M39.4964 20.3028L33.199 16.8346L27.2778 22.5L33.199 28.1628L39.4964 24.6973C41.2094 23.7507 41.2094 21.2493 39.4964 20.3028Z" fill="white"/>
</svg>
