<svg width="629" height="517" viewBox="0 0 629 517" fill="none" xmlns="http://www.w3.org/2000/svg">
<g filter="url(#filter0_d_29_866)">
<g filter="url(#filter1_d_29_866)">
<path d="M300.378 216.132C291.711 226.963 282.977 239.449 283.889 253.997C284.63 265.847 291.625 276.314 297.738 286.072C309.846 305.397 319.568 325.801 325.909 347.749C331.781 368.147 336.364 391.286 334.538 412.597C331.306 450.302 297.324 451.913 272.188 439.05C242.444 423.824 219.436 419.109 187.076 420.306C118.903 422.831 46.2202 401.26 24.8775 328.06C22.7679 320.82 21.3245 313.408 19.8872 306.014C18.1971 297.324 16.5008 288.566 16.4761 279.715C16.3836 245.985 39.8668 217.36 62.2951 192.184C84.7235 167.009 108.663 139.032 109.817 105.32C110.699 79.4845 102.489 54.0931 124.312 34.3983C141.96 18.4747 168.756 14.5802 191.598 14.0494C236.331 12.994 276.302 31.6333 309.785 59.8762C321.492 69.7513 335.211 82.4841 342.681 96.05C351.828 112.659 345.592 128.848 341.848 148.154C336.833 173.99 316.687 195.739 300.378 216.132Z" fill="white"/>
</g>
<path d="M327.13 337.923C317.162 359.296 307.2 380.664 297.232 402.037C291.686 413.937 285.826 426.237 275.722 434.613C271.898 437.779 267.549 440.309 264.015 443.803C260.486 447.296 257.779 452.135 258.476 457.048C259.154 461.788 260.85 467.299 265.162 469.379C269.474 471.459 280.158 471.614 284.901 472.206C295.591 473.527 302.648 473.638 313.313 472.114C323.978 470.589 336.235 468.528 342.619 459.85C348.208 452.252 348.368 439.865 349.355 430.477C351.532 409.659 350.613 388.521 346.635 367.968C345.561 362.432 344.223 356.815 341.225 352.038C338.227 347.261 333.268 343.391 327.642 343.052L327.13 337.923Z" fill="#D38266"/>
<path d="M199.314 489C160.811 489 120.278 485.075 85.0874 468.268C62.6467 457.554 43.2593 440.927 31.9218 418.535C22.5458 400.019 19.1285 379.084 19.6034 358.469C20.0352 339.645 20.9482 322.166 26.691 304.236C29.4606 295.602 35.1849 285.98 39.0155 277.765C42.5191 270.253 48.3113 267.63 41.3101 255.07C33.7846 241.56 49.3537 234.796 62.4431 239.363C75.5325 243.93 158.997 263.113 216.111 250.176C231.316 246.732 239.927 250.127 244.362 256.965L298.262 250.522C298.262 250.522 305.004 265.89 311.721 288.825C313.048 293.324 314.361 298.114 315.638 303.138C318.938 316.228 321.887 330.899 323.589 346.101C325.409 362.351 325.804 379.201 323.657 395.378C322.201 406.432 319.555 417.177 315.385 427.213C308.125 444.698 296.22 460.016 277.807 471.021C259.049 482.254 233.537 489 199.314 489Z" fill="#C3F4F4"/>
<path d="M277.573 378.892C274.464 384.046 270.048 388.422 265.15 391.977C263.953 392.841 262.744 393.668 261.51 394.421C259.154 395.884 256.693 397.167 254.164 398.272C248.328 400.803 242.074 402.352 235.726 402.827C223.544 403.741 211.262 396.927 199.82 403.321C193.571 406.814 189.297 413.745 187.755 420.621C187.545 421.553 187.304 422.602 186.478 423.083C185.762 423.497 184.812 423.3 184.146 422.806C182.407 421.51 182.215 419.294 182.339 417.3C182.598 413.054 182.616 408.863 182.074 404.636C181.734 401.975 181.204 399.309 180.075 396.884C178.021 392.483 173.808 390.138 169.743 387.848C165.123 385.243 161.409 381.114 163.519 375.485C165.986 368.9 174.135 367.221 180.124 369.653C186.583 372.276 191.85 377.744 197.186 382.089C198.074 382.811 199.123 383.583 200.252 383.373C200.992 383.237 201.59 382.7 202.139 382.188C203.86 382.188 209.005 375.812 210.387 374.529C213.125 371.986 215.821 369.486 218.825 367.252C225.727 362.117 233.136 357.655 240.914 353.97C252.69 348.391 273.841 342.644 280.608 358.673C283.421 365.351 281.175 372.986 277.573 378.892Z" fill="#E5906E"/>
<path d="M340.839 265.961C338.76 262.208 335.244 259.258 331.857 256.499C327.854 253.234 323.567 249.852 318.453 249.142C314.228 248.556 309.996 249.889 305.95 251.228C262.993 265.455 221.381 284.23 176.062 289.828C133.222 295.117 87.1808 293.037 46.6111 277.12C45.9943 276.879 44.4584 282.946 44.0327 284.372C42.0897 290.895 130.273 304.356 138.336 304.819C170.714 306.689 203.474 303.437 234.915 295.481C261.155 288.84 288.025 283.477 315.178 286.902C320.211 287.538 325.849 288.883 328.372 293.309C329.581 295.432 331.506 300.487 334.886 298.314C336.077 297.549 336.718 296.185 337.273 294.882C339.105 290.544 340.58 286.05 341.671 281.465C342.671 277.286 343.337 272.842 342.048 268.744C341.733 267.769 341.326 266.843 340.839 265.961Z" fill="#B6E9F2"/>
<path d="M267.327 392.082C266.137 392.952 264.915 393.767 263.676 394.538C262.319 395.378 261.06 396.415 259.666 397.198C258.58 397.809 257.143 398.093 256.132 397.359C255.589 396.964 255.262 396.347 254.966 395.748C248.248 382.293 245.904 366.487 248.791 351.692C248.939 350.939 254.485 349.662 255.299 349.44C257.612 348.804 260.246 348.088 262.658 348.224C262.96 350.939 261.264 354.815 260.918 357.685C260.505 361.16 260.4 364.672 260.604 368.165C261.097 376.491 263.324 384.756 267.327 392.082Z" fill="white"/>
<path d="M234.629 385.095C234.709 387.391 234.98 389.675 235.498 391.909C235.93 393.767 239.489 400.741 237.114 402.247C236.201 402.827 233.037 402.506 231.884 402.469C229.206 402.377 226.542 402.087 223.908 401.599C222.686 401.371 222.224 395.563 222.082 394.637C221.607 391.545 221.354 388.416 221.317 385.286C221.249 379.028 222.051 372.764 223.723 366.734C224.013 365.697 224.333 364.641 224.969 363.765C226.542 361.605 229.601 360.895 231.834 359.605C233.592 358.593 235.116 357.179 236.966 356.321C241.519 354.204 239.101 359.204 238.404 361.833C236.837 367.752 235.258 373.714 234.758 379.818C234.622 381.571 234.567 383.336 234.629 385.095Z" fill="white"/>
<path d="M71.4429 267.525C68.9447 266.063 66.1565 267.106 64.6021 269.322C50.4826 289.417 42.6487 313.599 42.0072 338.133C41.8406 344.576 51.8396 344.57 52.0124 338.133C52.6107 315.266 60.1053 293.071 73.2379 274.37C74.7923 272.161 73.6388 268.809 71.4429 267.525Z" fill="#EDF9F9"/>
<path d="M334.477 163.108C333.977 164.151 333.453 165.219 332.935 166.262C317.477 197.023 291.995 223.674 260.53 237.616C258.099 238.69 255.447 239.079 252.856 239.585C250.919 239.968 252.85 241.171 250.919 239.968C249.815 239.283 248.686 237.592 247.915 236.542C242.703 229.414 233.043 223.427 225.549 218.705C215.944 212.657 203.836 210.207 193.127 214.774C176.047 221.983 168.232 233.969 158.479 249.281C157.517 250.793 156.438 252.373 154.784 253.065C153.421 253.632 151.885 253.509 150.417 253.373C139.826 252.392 129.235 251.404 118.644 250.423C132.054 221.927 150.405 198.35 170.878 174.742C173.136 172.144 175.393 169.391 176.362 166.089C177.7 161.547 176.392 156.609 174.27 152.375C167.744 139.334 159.614 127.866 154.84 113.875C154.451 112.739 154.1 111.412 154.76 110.412C155.426 109.4 156.814 109.215 158.023 109.159C168.959 108.69 180.019 111.56 189.352 117.288C183.881 113.93 202.688 94.6305 205.236 93.0381C225.154 80.5707 251.437 88.298 272.793 94.0194C286.579 97.7164 301.124 105.462 313.671 112.295C321.998 116.843 336.845 125.046 343.483 130.854C343.766 131.094 344.025 131.335 344.266 131.57C351.366 138.309 337.913 155.801 334.477 163.108Z" fill="#E5906E"/>
<path d="M245.423 212.577C243.505 215.521 244.917 218.742 247.015 221.137C250.716 225.377 255.768 228.247 258.574 233.296C259.117 234.271 260.03 235.894 260.32 236.869C260.332 236.906 254.33 240.029 253.775 240.32C252.215 241.134 252.696 241.326 250.833 240.702C248.896 240.048 247.588 236.444 246.564 234.851C239.304 223.575 225 215.508 211.577 212.916C211.337 212.867 211.096 212.823 210.855 212.78C210.738 212.756 210.627 212.737 210.51 212.725C210.177 212.669 209.838 212.614 209.498 212.564C208.795 206.442 211.904 200.603 215.408 195.814C218.985 190.925 223.161 186.389 227.948 182.661C233.043 178.693 238.934 175.662 245.3 174.372C248.76 173.669 252.196 173.601 255.712 173.885C259.389 174.187 264.7 174.44 265.767 169.842C265.847 169.496 266.1 169.342 266.365 169.33C266.402 168.712 267.315 168.33 267.691 169.003C274.026 180.408 275.5 195.443 265.841 205.504C262.38 209.102 257.883 211.453 252.899 211.959C250.574 212.2 248.187 212.095 245.818 212.009C245.688 212.2 245.553 212.385 245.423 212.577Z" fill="#D38266"/>
<path d="M244.794 152.98C240.599 160.788 231.433 158.109 224.407 157.881C221.046 157.77 218.122 158.751 215.975 161.423C214.236 163.571 213.323 166.447 213.828 169.194C214.495 172.798 208.986 174.335 208.314 170.712C207.487 166.225 208.591 161.578 211.38 158.016C211.417 157.942 211.466 157.862 211.534 157.794C211.583 157.745 211.626 157.702 211.67 157.652C211.996 157.263 212.336 156.899 212.7 156.541C217.604 150.814 219.176 142.691 216.728 135.563C215.204 134.563 214.6 131.897 216.604 130.508C223.303 125.891 230.477 132.983 235.547 136.779C240.692 140.636 248.871 145.395 244.794 152.98Z" fill="#FCE6DE"/>
<path d="M194.022 214.422C187.897 217.027 179.452 220.23 174.893 225.451C172.272 224.458 172.272 224.458 169.558 224.204C163.019 223.587 158.424 227.877 154.569 232.611C151.293 236.629 148.092 241.091 143.2 243.251C139.234 245.004 134.86 244.59 131.369 241.992C131.172 241.844 123.819 240.85 123.634 240.696C123.338 240.455 126.749 233.666 126.959 233.092C127.699 231.074 129.71 228.951 130.518 226.963C132.128 222.982 136.217 220.563 138.093 216.706C141.855 208.984 148.425 202.738 153.211 195.616C155.685 191.938 158.35 188.389 161.101 184.914C164.086 181.143 167.787 178.118 171.1 174.656C173.493 172.163 175.615 169.243 176.343 165.861C176.88 163.374 176.392 160.812 176.707 158.3C181.944 172.922 187.964 187.525 190.907 202.831C191.635 206.614 193.51 210.342 194.022 214.422Z" fill="#D38266"/>
<path d="M176.17 132.921C176.047 137.6 173.839 142.259 170.156 145.173C165.653 137.124 161.156 129.076 156.66 121.034C156.061 120.435 155.666 119.257 155.253 118.516C154.494 117.164 153.705 115.825 152.909 114.492C152.101 113.14 150.738 111.998 150.756 110.301C150.763 109.968 150.83 109.61 151.09 109.4C151.268 109.258 151.503 109.215 151.725 109.184C155.21 108.647 158.874 108.74 162.384 108.943C164.197 109.048 166.005 109.239 167.794 109.511C168.256 109.585 173.098 110.634 173.117 110.585C172.543 111.85 171.766 112.992 170.791 113.905C168.861 118.207 172.673 122.151 174.523 125.786C175.658 128.002 176.238 130.428 176.17 132.921Z" fill="#FCE6DE"/>
<path d="M243.523 103.382C241.593 105.703 239.575 107.622 238.336 108.567C233.907 111.943 228.694 114.177 223.346 115.732C221.514 116.263 219.466 116.708 217.776 115.831C215.765 114.794 215.031 112.356 214.31 110.215C210.664 99.4014 202.565 91.7728 193.719 85.0145C191.696 83.4716 189.241 77.8489 190.351 75.4295C188.668 71.5473 194.768 68.4243 199.271 71.2326C207.389 76.2936 216.87 78.5587 225.974 81.1262C230.644 82.4408 235.313 83.811 239.804 85.6564C241.987 86.5514 244.115 87.5636 246.17 88.7239C251.357 91.6494 247.644 98.4262 243.523 103.382Z" fill="#FCE6DE"/>
<path d="M592.446 352.878C591.792 354.334 591.102 355.772 590.361 357.186C588.098 361.494 585.316 365.758 582.12 369.801C582.009 369.931 581.904 370.06 581.818 370.19C574.558 379.306 565.188 387.157 554.967 391.137C547.398 394.094 540.052 395.489 531.94 394.946C522.503 394.316 513.287 389.027 505.65 383.435C504.713 382.737 503.781 382.021 502.825 381.324C500.5 379.627 498.045 378.17 495.238 378.084C487.935 377.911 483.604 386.897 483.543 394.223C483.475 399.858 483.931 405.407 486.109 410.647C490.458 421.374 498.742 430.663 508.827 436.168C518.826 441.63 548.681 445.346 538.442 462.862C536.745 465.8 534.377 467.232 531.311 468.429C523.002 471.756 514.502 474.477 505.805 476.588C475.82 483.853 444.731 486.031 414.53 480.088C408.769 478.958 400.948 476.033 398.536 470.675C397.08 467.435 398.918 462.658 400.115 459.22C400.263 458.788 400.429 458.356 400.602 457.93C401.04 456.869 400.658 455.653 399.677 455.048C387.63 447.586 376.582 438.513 366.929 428.132C366.189 436.724 366.941 440.865 368.792 447.605C369.445 449.956 373.103 453.19 373.8 455.542C375.799 462.047 371.45 468.509 365.319 470.49C362.142 471.515 358.558 471.774 355.338 470.774C352.384 469.836 350.077 467.207 349.121 464.312C348.559 462.745 348.084 462.961 346.653 463.325C345.296 463.664 343.896 463.775 342.502 463.621C341.392 463.504 340.263 463.226 339.183 463.485C337.721 463.837 336.673 465.078 335.599 466.133C332.207 469.447 327.525 471.361 322.788 471.391C322.565 471.391 322.325 471.385 322.14 471.256C321.881 471.077 321.825 470.725 321.782 470.416C321.35 466.898 318.001 461.529 320.894 458.369C321.77 457.412 322.973 456.832 324.182 456.363C331.14 453.684 339.146 451.573 336.993 442.198C335.606 436.156 334.273 430.132 333.638 423.935C332.898 416.8 330.837 409.69 330.035 402.58C328.425 388.311 328.185 374.053 325.335 359.975C324.681 356.735 323.966 353.495 323.207 350.291C315.663 318.376 302.66 288.442 277.437 266.816C272.978 262.989 268.197 259.811 263.262 256.657C257.89 253.262 251.197 251.83 246.435 247.498C245.176 246.343 244.066 244.93 243.326 243.362C256.415 239.079 268.505 239.4 275.568 224.914C276.222 223.569 277.894 222.149 279.201 221.52C282.878 219.711 286.289 218.341 289.7 215.909C299.742 208.75 309.223 200.726 317.267 191.37C332.071 174.181 339.313 153.122 343.643 131.15C348.732 133.088 353.623 136.742 357.732 139.136C365.991 143.92 374.127 148.993 381.801 154.69C415.635 179.729 442.831 213.496 459.856 251.997C462.903 258.848 466.462 265.1 468.486 273.08C468.813 274.364 469.664 275.271 471.002 275.79C471.872 276.129 472.822 276.191 473.76 276.265C475.869 276.432 478.022 276.679 479.947 277.561C483.925 279.394 487.873 283.764 489.835 287.683C491.852 291.713 492.154 295.583 493.616 299.86C495.09 304.156 495.695 308.513 496.145 313.007C497.039 321.937 497.311 331.14 501.234 339.398C501.394 339.737 501.561 340.077 501.733 340.41C503.448 343.762 505.626 346.804 508.081 349.458C510.56 352.112 513.367 354.377 516.383 356.179C517.667 356.963 518.993 357.661 520.344 358.247C524.02 359.858 527.912 360.833 531.934 361.074C537.541 361.376 543.37 360.228 548.977 357.309C560.913 351.063 568.784 338.577 571.591 325.418C572.202 322.61 572.59 319.765 572.788 316.889C573.201 311.038 572.831 305.144 571.918 299.286C571.221 294.633 570.154 290.041 568.852 285.535C567.742 281.727 566.459 277.962 564.941 274.265C554.874 249.312 536.067 227.383 510.696 219.181C496.496 214.589 479.213 213.348 470.972 200.887C464.014 190.382 467.338 175.193 476.431 166.447C485.517 157.683 498.958 154.659 511.523 155.634C515.026 155.893 518.61 156.48 521.614 158.313C524.612 160.14 526.919 163.448 526.679 166.972C526.308 172.15 520.701 175.477 515.501 175.934C510.326 176.372 505.175 174.891 499.975 174.934C494.757 175.002 488.909 177.304 487.367 182.266C485.998 186.815 488.909 191.728 492.869 194.32C493.11 194.474 493.351 194.622 493.585 194.733C497.409 197.017 501.912 197.801 506.261 198.801C507.26 199.041 508.26 199.282 509.259 199.541C510.258 199.801 511.239 200.066 512.238 200.344C516.198 201.473 520.085 202.825 523.915 204.349C533.069 208.028 541.767 212.811 549.767 218.576C550.137 218.835 550.507 219.1 550.853 219.36C557.311 224.081 563.313 229.475 568.704 235.413C579.227 247.01 587.4 260.693 592.749 275.419C595.79 283.727 597.899 292.368 599.053 301.157C601.323 318.635 599.645 336.824 592.446 352.878Z" fill="#E5906E"/>
<path d="M175.004 406.592C170.872 409.857 164.962 409.178 162.131 405.247C160.324 406.074 158.195 406.228 156.259 405.376C154.735 404.722 153.606 403.617 152.804 402.29C150.022 397.655 143.934 399.747 139.715 400.463C138.734 400.618 137.803 400.704 136.865 400.747C136.236 401.229 135.539 401.617 134.78 401.901C136.15 405.642 140.282 407.95 144.563 406.777C147.845 405.882 149.239 410.974 145.976 411.869C138.278 413.955 131.344 409.258 129.58 402.383C124.861 401.772 120.358 398.643 118.428 394.335C117.885 393.137 117.601 391.853 117.515 390.551C113.752 385.675 110.995 379.719 109.687 373.998C107.904 366.252 107.54 358.167 106.449 350.31C99.1637 297.793 112.925 271.476 118.557 251.46C124.146 252.133 137.13 253.83 142.744 254.305C148.178 254.762 148.486 253.762 153.878 254.589C153.81 256.589 153.279 259.033 152.625 261.014C148.258 274.179 138.086 303.872 137.05 333.757C136.723 343.194 138.82 357.309 141.152 366.468C141.633 366.166 142.133 365.882 142.633 365.598C145.396 364.012 148.98 362.444 152.218 363.012C154.174 363.209 156.043 364.271 157.239 366.19C157.825 367.129 158.177 368.104 158.306 369.128C160.934 370.893 164.783 372.436 166.461 368.888C167.917 365.82 174.986 368.344 173.549 371.387C172.136 374.368 167.911 379.176 164.715 379.263C162.495 379.306 158.146 378.676 158.146 377.652V377.676C158.146 382.441 160.435 384.879 162.976 389.101C163.889 390.625 164.296 392.236 164.555 393.952C166.295 395.803 166.899 398.544 166.116 401C166.745 402.784 168.367 404.025 170.168 403.5C170.452 403.068 170.872 402.698 171.501 402.5C171.828 402.414 172.136 402.303 172.457 402.216C174.85 401.457 177.132 404.919 175.004 406.592Z" fill="#A2E9F2"/>
<path d="M481.643 455.332C469.516 458.671 456.969 460.467 444.398 460.671C433.807 460.844 427.515 455.128 417.979 453.573C412.217 452.629 406.314 455.579 400.584 454.474C396.846 453.752 393.669 451.394 390.683 449.055C384.996 444.599 379.463 439.927 374.127 435.051C370.815 432.033 367.527 428.86 365.442 424.898C364.893 423.855 364.443 422.781 364.067 421.689C363.999 419.726 363.943 417.806 363.863 415.992C363.314 402.679 363.437 389.329 364.208 376.022C365.843 347.73 371.857 319.938 377.372 292.219C377.853 289.8 378.587 286.418 380.734 284.881C383.824 282.671 387.685 284.609 388.487 288.195C388.839 289.769 388.672 291.411 388.5 293.016C385.588 320.253 382.646 347.107 386.668 374.424C389.228 391.81 395.303 408.197 406.912 421.608C410.435 425.682 414.475 429.675 419.65 431.15C424.832 432.632 431.346 430.675 433.301 425.657C435.114 420.997 432.511 415.819 429.514 411.82C425.239 406.123 420.045 401.192 415.659 395.587C402.231 378.436 397.203 355.124 401.891 333.856C406.579 312.593 420.767 293.695 439.63 282.838C440.561 282.301 441.887 281.844 442.584 282.653C443.374 283.554 442.492 284.9 441.672 285.776C424.431 303.959 419.934 331.424 424.085 356.149C427.182 374.603 435.404 391.421 446.057 406.654C454.434 418.64 468.072 441.68 483 445.722C485.023 446.272 487.472 446.734 488.299 448.666C488.94 450.172 488.2 451.987 486.96 453.061C485.726 454.135 484.104 454.635 482.525 455.079C482.223 455.172 481.933 455.252 481.643 455.332Z" fill="#D38266"/>
<path d="M156.271 468.978C156.259 469.663 156.191 470.348 156.03 471.015C154.581 477.218 147.555 476.958 142.589 476.15C122.585 472.891 102.84 469.206 85.0319 459.047C69.0433 449.931 55.0965 436.668 47.2009 419.856C38.3492 401.006 35.5549 379.238 37.0971 358.593C37.2451 356.612 37.4672 354.544 38.559 352.884C42.0503 347.563 50.3345 353.161 54.7819 353.933C61.7584 355.149 68.7226 356.482 75.7792 357.099C82.0463 357.648 88.3443 357.938 94.6361 357.846C100.872 357.753 107.176 356.346 113.351 356.346C116.75 355.828 121.068 355.605 122.727 358.617C123.424 359.889 123.412 361.413 123.375 362.864C123.023 376.498 123.208 389.446 126.484 402.796C130.092 417.374 136.736 429.848 143.379 443.142C148.055 451.036 156.407 459.356 156.271 468.978Z" fill="#EDF9F9"/>
<path d="M327.364 396.242C327.075 400.439 326.606 404.642 325.915 408.839C323.151 425.577 316.94 441.97 306.349 455.221C297.67 466.084 272.971 481.631 262.405 463.374C260.795 460.59 260.961 457.017 263.046 454.567C267.111 449.783 274.476 452.826 280.626 453.153C291.224 453.715 300.439 444.519 303.209 434.261C305.979 424.009 303.721 413.097 300.692 402.92C297.664 392.742 293.839 382.608 293.451 371.992C293.179 364.512 294.851 356.605 299.872 351.057C301.994 348.711 304.683 346.909 307.619 345.755C314.226 343.157 317.914 335.997 316.169 329.115C316.156 329.054 316.138 329.004 316.132 328.973C314.176 322.468 311.765 316.093 308.915 309.921C303.246 297.657 295.807 286.152 286.548 276.29C280.312 269.642 273.317 263.699 265.699 258.681C265.68 258.669 265.649 258.65 265.631 258.632C260.881 255.533 254.867 255.188 249.661 257.428C239.144 261.946 228.238 265.526 217.018 268.025C208.388 269.939 199.635 271.266 190.833 271.945C185.059 272.401 177.151 273.728 172.901 268.711C170.23 265.557 170.033 261.477 172.778 258.224C177.86 252.194 187.995 254.638 194.848 254.342C215.765 253.46 236.041 246.985 255.071 238.598C264.601 234.394 273.804 229.284 282.613 223.748C285.721 221.804 288.275 221.044 291.908 221.865C295.48 222.668 298.836 224.976 300.291 228.408C301.525 231.333 301.315 234.357 300.119 236.925C298.102 241.301 298.41 246.43 300.47 250.787C301.784 253.583 303.061 256.397 304.276 259.249C307.292 266.328 309.939 273.556 312.233 280.888C317.945 299.114 321.56 317.889 323.75 336.787C326.057 356.544 328.728 376.399 327.364 396.242Z" fill="#B6E9F2"/>
<path d="M354.598 465.442C354.431 464.923 354.209 464.417 353.95 463.93C353.383 462.245 352.322 460.628 350.712 459.776C350.144 459.535 349.577 459.294 349.003 459.054C347.739 458.714 346.468 458.714 345.204 459.054C343.939 459.257 342.674 459.455 341.41 459.652C339.825 459.905 337.869 461.553 337.141 462.936C336.253 464.621 335.865 466.577 336.42 468.447C336.636 469.17 336.845 469.892 337.061 470.614C337.555 472.28 338.77 474.052 340.343 474.885C341.965 475.743 344.062 476.261 345.851 475.607C347.103 475.15 348.349 474.687 349.602 474.231C351.378 473.576 352.889 472.626 353.87 470.947C354.777 469.416 355.153 467.164 354.598 465.442Z" fill="#FFDBC7"/>
<path d="M380.222 463.541C379.605 461.313 378.02 459.109 375.959 457.992C373.683 456.758 371.302 456.455 368.767 456.961C364.486 457.819 361.303 461.887 361.322 466.213C361.328 468.447 362.142 470.496 363.481 472.237C364.764 473.897 366.688 475.409 368.829 475.736C370.229 475.946 371.512 476.014 372.777 475.669C373.831 475.613 374.886 475.311 375.855 474.693C379.586 472.293 381.425 467.861 380.222 463.541Z" fill="#FFDBC7"/>
<path d="M330.948 464.973C330.788 464.115 330.43 463.318 330.023 462.541C329.252 461.053 327.889 459.72 326.439 458.893C324.354 457.708 321.881 457.449 319.561 457.986C317.933 458.369 316.144 459.368 315.034 460.621C313.128 462.775 312.332 465.547 313.06 468.367C313.634 470.577 315.089 472.218 316.909 473.496C318.198 474.403 319.999 474.879 321.566 474.909C322.306 474.922 323.053 474.817 323.768 474.626C325.119 474.687 326.482 474.428 327.636 473.687C329.092 472.749 330.652 471.206 330.918 469.416C331.214 467.448 331.312 466.917 330.948 464.973Z" fill="#FFDBC7"/>
<path d="M428.268 199.146C403.674 174.138 377.267 151.055 347.739 132.131C318.198 113.202 285.487 98.4633 252.511 86.4897C234.005 79.7684 215.075 74.2383 195.866 69.9303C189.593 68.5231 186.916 78.1699 193.208 79.5832C226.727 87.1007 259.395 98.3398 290.403 113.134C321.387 127.922 350.86 146.08 377.828 167.342C393.089 179.371 407.573 192.37 421.192 206.219C425.714 210.824 432.789 203.745 428.268 199.146Z" fill="#F4B7A4"/>
<path d="M398.184 172.255C396.075 170.755 392.651 171.138 391.208 173.44C380.9 189.851 367.478 203.917 351.6 215.014C349.386 216.564 349.349 220.119 350.971 222.063C352.834 224.285 355.795 224.242 358.016 222.692C374.516 211.163 388.654 196.283 399.362 179.236C400.8 176.946 400.473 173.878 398.184 172.255Z" fill="#F4B7A4"/>
<path d="M426.183 201.615C424.431 199.708 421.007 199.369 419.114 201.313C405.605 215.206 389.542 226.155 371.697 233.691C369.205 234.74 368.428 238.209 369.612 240.455C370.969 243.017 373.874 243.597 376.373 242.541C394.915 234.715 411.847 223.124 425.88 208.688C427.762 206.75 428.083 203.689 426.183 201.615Z" fill="#F4B7A4"/>
<path d="M365.3 148.956C362.488 148.185 360.107 149.913 359.144 152.449C352.815 169.151 343.908 184.988 332.861 199.023C331.189 201.146 330.794 204.028 332.861 206.102C334.594 207.837 338.252 208.238 339.936 206.102C352.125 190.611 361.803 173.551 368.792 155.109C369.748 152.585 367.731 149.629 365.3 148.956Z" fill="#F4B7A4"/>
<path d="M338.542 131.835C336.05 131.15 332.959 132.674 332.386 135.328C325.755 166.157 314.189 189.006 289.114 208.238C286.974 209.879 285.833 212.546 287.319 215.082C288.553 217.193 292.007 218.533 294.16 216.878C315.49 200.523 325.909 184.253 335.68 159.189C338.363 152.301 340.479 145.21 342.027 137.982C342.601 135.353 341.25 132.576 338.542 131.835Z" fill="#F4B7A4"/>
<path d="M267.821 192.413C266.692 194.573 265.242 196.56 263.497 198.276C259.82 201.887 254.947 204.152 249.864 204.855C244.418 205.615 239.076 204.139 233.95 206.849C230.008 208.935 227.091 211.706 223.605 214.428C220.238 217.057 216.462 219.224 212.169 219.798C201.948 221.156 191.986 216.243 188.575 206.189C187.107 201.868 187.341 196.962 189.377 192.869C191.511 188.58 195.539 185.815 199.913 184.173C203.959 182.649 208.32 182.278 212.558 181.612C224.685 179.717 235.572 172.965 241.704 162.158C242.555 160.652 243.363 159.029 244.794 158.06C246.546 156.868 248.853 156.93 250.938 157.307C259.58 158.881 267.093 165.565 269.671 173.971C271.528 180.032 270.757 186.802 267.821 192.413Z" fill="#F4B7A4"/>
<path d="M229.817 167.62C226.122 164.867 219.713 161.825 215.062 162.497C211.922 162.954 208.943 165.083 207.993 168.114C206.889 171.656 208.641 175.446 210.744 178.495C212.632 181.235 214.939 183.815 217.949 185.235C223.926 188.049 229.459 184.395 232.753 179.483C234.382 177.057 234.234 173.767 232.957 171.231C232.235 169.768 231.119 168.589 229.817 167.62Z" fill="#F4B7A4"/>
<path d="M432.974 456.289C432.931 456.282 432.888 456.282 432.851 456.276C432.857 456.276 432.869 456.276 432.875 456.282C432.906 456.282 432.937 456.289 432.974 456.289Z" fill="#FFBB95"/>
<path d="M433.572 456.369C433.585 456.369 433.591 456.369 433.603 456.375C433.591 456.369 433.579 456.369 433.572 456.369Z" fill="#FFBB95"/>
<path d="M432.974 456.289C433.048 456.295 433.122 456.307 433.202 456.313C433.122 456.307 433.048 456.301 432.974 456.289Z" fill="#FFBB95"/>
<path d="M433.202 456.319C433.276 456.332 433.356 456.338 433.43 456.35C433.356 456.338 433.276 456.326 433.202 456.319Z" fill="#FFBB95"/>
<path d="M433.431 456.344C433.48 456.35 433.529 456.356 433.572 456.363C433.523 456.363 433.474 456.35 433.431 456.344Z" fill="#FFBB95"/>
<path d="M513.034 441.896C513.163 442.087 513.349 442.328 513.527 442.507C513.361 442.34 513.194 442.118 513.034 441.896Z" fill="#FFBB95"/>
<path d="M456.328 266.378C456.42 266.538 456.525 266.692 456.624 266.847C456.648 266.711 456.513 266.303 456.056 265.736C456.068 265.797 456.081 265.859 456.093 265.915C456.18 266.081 456.254 266.248 456.328 266.378Z" fill="#FFBB95"/>
<path d="M515.816 446.191C516.248 447.864 516.186 447.012 515.816 446.191V446.191Z" fill="#FFBB95"/>
<path d="M462.379 298.78C462.336 298.756 462.299 298.725 462.255 298.7C462.996 299.576 463.31 299.663 463.199 299.459C463.187 299.447 463.168 299.428 463.156 299.416C462.922 299.206 462.632 299.002 462.379 298.78Z" fill="#FFBB95"/>
<path d="M327.704 161.75C327.728 161.689 327.747 161.633 327.771 161.572C327.21 162.775 327.087 163.09 327.136 163.01C327.229 162.806 327.321 162.608 327.414 162.411C327.512 162.189 327.605 161.967 327.704 161.75Z" fill="#FFBB95"/>
<path d="M313.233 186.426C313.282 186.364 313.325 186.303 313.374 186.241C313.473 186.105 313.572 185.969 313.67 185.84C313.578 185.963 313.387 186.21 313.072 186.63C313.103 186.593 313.128 186.562 313.152 186.525C313.177 186.494 313.202 186.463 313.233 186.426Z" fill="#FFBB95"/>
<path d="M428.002 436.742C427.848 436.736 427.725 436.754 427.657 436.81C427.719 436.767 427.842 436.748 428.002 436.742Z" fill="#FFBB95"/>
<path d="M530.719 403.253C530.336 403.469 529.942 403.667 529.547 403.852H531.743V402.611C531.416 402.833 531.077 403.049 530.719 403.253Z" fill="#FFBB95"/>
<path d="M235.27 150.042C232.593 144.592 229.49 139.408 225.949 134.47C223.988 131.736 219.411 134.366 221.397 137.131C224.938 142.062 228.041 147.253 230.718 152.702C232.217 155.751 236.763 153.085 235.27 150.042Z" fill="#D38266"/>
<path d="M198.882 168.145C196.261 164.059 193.639 159.973 191.018 155.881C189.192 153.029 184.627 155.677 186.465 158.541C189.087 162.627 191.709 166.713 194.33 170.805C196.156 173.656 200.721 171.008 198.882 168.145Z" fill="#D38266"/>
<path d="M218.258 176.347C216.012 177.366 213.662 177.625 211.38 177.279C211.355 177.273 211.337 177.261 211.312 177.248C210.64 177.038 209.961 176.909 209.276 176.773C208.055 176.372 206.871 175.816 205.766 175.082C203.762 173.749 201.837 175.033 201.208 176.804C200.776 176.89 200.338 176.946 199.906 177.057C195.854 178.143 197.575 184.439 201.64 183.352C203.595 182.828 205.495 182.741 207.407 183.044C208.296 183.315 209.202 183.513 210.109 183.649C210.208 183.661 210.313 183.679 210.411 183.686C214.125 184.186 217.955 183.612 221.545 181.976C225.364 180.248 222.051 174.619 218.258 176.347Z" fill="#E5906E"/>
<path d="M237.91 163.121C237.75 161.368 236.522 159.856 234.647 159.856C233.006 159.856 231.224 161.355 231.384 163.121C231.662 166.188 230.403 168.941 227.695 170.496C224.056 172.582 227.337 178.223 230.989 176.131C235.548 173.514 238.385 168.392 237.91 163.121Z" fill="#E5906E"/>
<path d="M257.809 164.553C253.461 164.553 253.461 171.076 257.809 171.076C262.158 171.082 262.158 164.553 257.809 164.553Z" fill="#E5906E"/>
<path d="M261.073 183.284C259.308 183.365 257.809 184.716 257.809 186.549V186.895C257.809 188.605 259.308 190.24 261.073 190.16C262.837 190.08 264.336 188.728 264.336 186.895V186.549C264.336 184.84 262.837 183.204 261.073 183.284Z" fill="#E5906E"/>
<path d="M251.524 177.754H251.178C249.47 177.754 247.835 179.254 247.915 181.019C247.995 182.785 249.346 184.284 251.178 184.284H251.524C253.232 184.284 254.867 182.785 254.787 181.019C254.707 179.248 253.356 177.754 251.524 177.754Z" fill="#E5906E"/>
<path d="M201.183 187.043H200.838C199.129 187.043 197.495 188.543 197.575 190.308C197.655 192.073 199.006 193.573 200.838 193.573H201.183C202.892 193.573 204.527 192.073 204.446 190.308C204.366 188.537 203.009 187.043 201.183 187.043Z" fill="#E5906E"/>
<path d="M195.983 200.097H195.638C193.929 200.097 192.295 201.597 192.375 203.362C192.455 205.127 193.806 206.627 195.638 206.627H195.983C197.692 206.627 199.32 205.127 199.246 203.362C199.166 201.59 197.809 200.097 195.983 200.097Z" fill="#E5906E"/>
<path d="M209.979 202.362C205.631 202.362 205.631 208.886 209.979 208.886C214.328 208.892 214.328 202.362 209.979 202.362Z" fill="#E5906E"/>
<path d="M549.791 218.674C549.835 218.977 549.724 219.372 549.532 219.829C547.879 223.482 544.684 229.661 539.879 229.463C537.467 229.377 535.555 227.482 533.791 225.828C525.05 217.712 513.897 214.342 502.979 210.25C497.872 208.336 492.783 204.288 492.869 198.282C492.894 196.999 493.153 195.801 493.585 194.758C497.409 197.042 501.912 197.826 506.261 198.825C507.26 199.066 508.259 199.307 509.259 199.566C510.258 199.825 511.239 200.091 512.238 200.368C516.198 201.498 520.084 202.825 523.915 204.374C533.069 208.053 541.766 212.836 549.767 218.6C549.791 218.631 549.791 218.65 549.791 218.674Z" fill="#FCE6DE"/>
<path d="M580.276 341.194C584.279 329.967 591.644 317.197 583.866 305.884C580.325 300.749 576.235 299.095 571.93 299.317C572.843 305.168 573.213 311.062 572.8 316.92C572.602 319.79 572.214 322.641 571.603 325.449C568.796 338.608 560.925 351.1 548.989 357.34C543.382 360.253 537.553 361.407 531.946 361.105C527.924 360.864 524.032 359.889 520.356 358.278C519.005 357.692 517.679 356.994 516.396 356.21C513.373 354.402 510.566 352.143 508.093 349.489C505.613 346.835 503.46 343.792 501.721 340.441C500.648 338.355 499.981 335.577 498.353 334.084C496.348 337.275 496.786 344.626 495.812 348.693C494.491 354.198 492.647 359.562 490.772 364.9C486.028 378.405 476.844 396.834 486.176 410.295C480.693 402.389 481.957 377.781 495.238 378.102C498.044 378.189 500.5 379.645 502.825 381.343C503.781 382.04 504.719 382.756 505.65 383.453C513.281 389.045 522.502 394.328 531.94 394.964C540.051 395.507 547.398 394.112 554.967 391.156C565.188 387.175 574.558 379.318 581.818 370.208C579.209 360.753 576.599 351.55 580.276 341.194Z" fill="#D38266"/>
<path d="M244.27 205.466C240.371 204.356 237.978 201.405 236.473 197.758C235.8 196.128 234.308 194.974 232.47 195.474C227.208 196.912 228.479 202.745 227.072 206.324C226.239 208.448 221.107 213.928 219.633 215.453C218.757 216.354 223.494 216.996 224.389 218.026C225.666 219.508 230.354 218.088 232.155 217.236C234.758 216.002 236.349 213.052 237.256 210.447C237.38 210.089 237.472 209.731 237.565 209.373C239.02 210.392 240.655 211.219 242.543 211.756C246.577 212.916 248.304 206.621 244.27 205.466Z" fill="#D38266"/>
<path d="M136.631 257.095C110.982 256.107 85.5068 250.837 62.0175 241.455C58.8531 240.19 55.1212 240.64 53.246 243.56C51.6545 246.035 52.3824 250.219 55.5653 251.491C80.239 261.341 105.807 265.742 132.356 269.192C134.459 269.463 136.643 269.735 138.666 269.143C145.149 267.235 143.354 257.354 136.631 257.095Z" fill="#EDF9F9"/>
<path d="M50.6368 258.669C49.5265 259.255 48.2681 259.582 47.0098 259.57C45.7576 259.514 44.5671 259.175 43.4876 258.669C41.3718 257.576 39.6817 255.854 38.6331 253.731C38.1211 252.67 37.7325 251.509 37.6523 250.275C37.5598 249.67 37.6461 249.041 37.6708 248.417C37.788 247.837 37.8558 247.244 38.0532 246.689C38.7071 244.405 40.1135 242.437 41.779 240.906C43.4629 239.369 45.4368 238.24 47.5403 237.474C49.6437 236.703 51.9198 236.363 54.0788 236.345C58.4584 236.283 62.6097 237.289 66.5328 238.357C82.0402 242.708 97.7759 245.992 113.684 248.226C117.663 248.781 121.641 249.275 125.632 249.726C127.65 249.935 129.63 250.17 131.597 250.33C133.571 250.503 135.576 250.633 137.581 250.762C145.6 251.244 153.668 251.552 161.718 251.812C165.616 251.836 169.663 251.775 173.654 251.639C177.651 251.491 181.654 251.299 185.639 250.985C193.615 250.374 201.566 249.491 209.443 248.207C217.32 246.905 225.135 245.276 232.833 243.245C234.758 242.739 236.67 242.171 238.582 241.628C240.476 241.017 242.395 240.486 244.276 239.838L249.926 237.919L255.496 235.783C262.874 232.821 270.054 229.383 276.938 225.427C283.809 221.446 290.342 216.903 296.467 211.861C299.57 209.38 302.438 206.633 305.319 203.905L309.445 199.615C310.808 198.171 312.054 196.622 313.362 195.128C318.439 189.018 323.065 182.513 326.982 175.57C328 173.86 328.857 172.052 329.801 170.299L331.183 167.645C331.596 166.75 332.034 165.867 332.435 164.954C334.051 161.325 335.464 157.591 336.778 153.813C339.368 146.24 341.428 138.464 343.106 130.607L343.082 130.872L343.088 130.848L343.205 130.317C343.365 129.582 344.087 129.113 344.815 129.274C345.537 129.428 345.999 130.132 345.864 130.848L345.857 130.872L345.833 131.144C344.371 139.149 342.508 147.092 340.09 154.9C338.875 158.8 337.505 162.67 335.902 166.46C335.507 167.41 335.069 168.348 334.656 169.293L333.292 172.051C332.361 173.872 331.516 175.749 330.504 177.532C326.618 184.76 321.979 191.58 316.86 198.011C315.533 199.585 314.281 201.214 312.9 202.738L308.711 207.275C305.787 210.17 302.864 213.07 299.705 215.712C293.457 221.063 286.795 225.951 279.726 230.167C272.657 234.376 265.279 238.042 257.705 241.221C242.536 247.559 226.566 251.769 210.405 254.287C202.324 255.577 194.188 256.416 186.04 256.916C181.969 257.187 177.885 257.329 173.808 257.422C169.724 257.508 165.684 257.521 161.502 257.441C153.403 257.076 145.322 256.663 137.211 256.07C135.181 255.916 133.152 255.762 131.104 255.552C129.044 255.354 127.02 255.089 125.016 254.854C120.981 254.355 116.947 253.793 112.932 253.145C96.8691 250.577 80.9546 246.93 65.4225 242.251C61.5919 241.128 57.8107 240.122 54.0788 240.085C52.1974 240.054 50.4147 240.283 48.7061 240.856C46.9974 241.43 45.3751 242.307 44.0428 243.461C41.3657 245.739 39.8914 249.374 41.4088 252.398C41.7358 253.176 42.2663 253.861 42.8214 254.509C43.4074 255.132 44.0859 255.651 44.8138 256.064C45.554 256.435 46.3312 256.669 47.1023 256.731C47.8734 256.749 48.6074 256.57 49.3106 256.243L49.4093 256.194C50.1002 255.873 50.9206 256.169 51.2475 256.86C51.5559 257.533 51.2845 258.329 50.6368 258.669Z" fill="#233940"/>
<path d="M97.3688 262.366L107.368 264.779L117.441 266.779L127.569 268.402L137.747 269.587C141.158 269.821 144.557 270.124 147.956 270.389L158.183 270.772L168.41 270.723C171.815 270.55 175.22 270.414 178.619 270.291C182.012 270 185.411 269.754 188.809 269.538C192.19 269.149 195.582 268.822 198.975 268.488L209.104 267.05L219.177 265.211C232.556 262.464 245.732 258.644 258.574 253.793C259.29 253.521 260.092 253.885 260.363 254.601C260.622 255.286 260.301 256.052 259.648 256.354C247.046 262.199 233.827 266.791 220.293 270.149L210.084 272.451L199.777 274.29C196.316 274.753 192.856 275.234 189.389 275.648C185.91 275.944 182.425 276.203 178.94 276.432C175.449 276.53 171.957 276.617 168.466 276.66L157.998 276.395L147.567 275.691C144.101 275.302 140.634 274.944 137.174 274.524L126.854 272.852L116.627 270.741L106.529 268.118L96.5792 265.02C95.8514 264.791 95.4442 264.02 95.6663 263.285C95.8822 262.588 96.6039 262.181 97.3071 262.347L97.3688 262.366Z" fill="#233940"/>
<path d="M514.922 156.782C517.352 156.375 519.838 156.399 522.293 157.023C523.514 157.344 524.736 157.831 525.846 158.59C526.956 159.343 527.949 160.411 528.56 161.689C529.177 162.942 529.436 164.417 529.275 165.805C529.127 167.2 528.634 168.503 527.943 169.626C526.549 171.866 524.384 173.588 521.904 174.428C519.468 175.267 516.951 175.391 514.601 175.31C512.232 175.218 509.993 174.995 507.809 174.946C503.442 174.884 499.001 175.397 495.275 177.205C493.437 178.112 491.796 179.347 490.698 180.914C490.149 181.698 489.748 182.556 489.477 183.445C489.255 184.346 489.119 185.278 489.199 186.21C489.347 188.074 490.106 189.907 491.358 191.394C492.573 192.913 494.264 194.055 496.108 194.82C497.027 195.215 498.014 195.48 499.007 195.684C499.501 195.795 500.019 195.826 500.524 195.906L502.227 196.128C504.534 196.443 506.866 196.653 509.129 197.19L512.547 197.887C513.682 198.14 514.786 198.486 515.909 198.782L519.264 199.72L522.552 200.856C531.299 203.917 539.638 208.04 547.472 212.947C555.3 217.86 562.64 223.569 569.272 230.056C570.943 231.66 572.485 233.401 574.095 235.073C575.637 236.808 577.099 238.622 578.598 240.4C579.961 242.295 581.405 244.121 582.694 246.072L584.569 249.04L585.507 250.528L586.333 252.065C590.861 260.199 594.309 268.877 596.844 277.783C601.896 295.608 603.383 314.482 600.663 332.911C599.281 342.114 596.776 351.211 592.847 359.747C592.341 360.815 591.922 361.889 591.348 362.95C590.75 363.999 590.219 365.104 589.541 366.092C588.893 367.104 588.258 368.128 587.53 369.073C586.833 370.042 586.117 370.998 585.346 371.899C582.33 375.572 578.944 378.886 575.323 381.892C571.696 384.891 567.834 387.595 563.751 389.946C559.661 392.298 555.362 394.322 550.785 395.797C546.152 397.316 541.224 397.957 536.382 397.816C533.957 397.766 531.539 397.476 529.164 397.05C526.783 396.637 524.446 396.019 522.163 395.266C513.04 392.236 504.719 386.904 498.211 379.843L495.83 377.176C495.047 376.275 494.368 375.294 493.634 374.356L492.555 372.93C492.191 372.455 491.895 371.936 491.568 371.443L489.631 368.431C487.262 364.289 485.258 359.963 483.679 355.507C482.161 351.038 480.934 346.502 480.002 341.941C479.095 337.38 478.349 332.812 477.738 328.276C476.48 319.197 475.561 310.18 473.865 301.41C470.466 283.813 464.704 266.668 456.864 250.509C454.94 246.454 452.719 242.541 450.597 238.573C449.549 236.585 448.327 234.691 447.198 232.747C446.039 230.821 444.935 228.858 443.676 226.994L440 221.335C438.76 219.458 437.422 217.644 436.132 215.798C433.603 212.07 430.76 208.571 428.058 204.967L423.777 199.739L421.63 197.128L419.397 194.591L414.925 189.524L410.28 184.605L407.949 182.155L405.543 179.773C403.933 178.193 402.348 176.588 400.726 175.02C397.401 171.971 394.169 168.817 390.72 165.898C363.579 142.013 332.509 122.75 299.779 107.277C283.371 99.605 266.525 92.8344 249.334 87.0698C232.167 81.2311 214.637 76.4664 196.915 72.578H196.909C196.162 72.4114 195.687 71.6708 195.848 70.924C196.008 70.1833 196.742 69.7081 197.482 69.8624C233.241 77.1515 268.246 88.3783 301.476 103.623C334.637 118.936 366.238 138.106 394.021 162.108C397.549 165.04 400.861 168.213 404.272 171.286C405.938 172.86 407.566 174.477 409.219 176.076L411.687 178.476L414.08 180.951L418.855 185.914L423.462 191.036L425.757 193.604L427.965 196.252L432.37 201.553C435.158 205.207 438.075 208.762 440.691 212.552C442.017 214.428 443.399 216.274 444.676 218.181L448.475 223.945C449.777 225.846 450.918 227.846 452.121 229.809C453.287 231.79 454.551 233.722 455.637 235.752C457.839 239.795 460.134 243.788 462.145 247.948C470.299 264.489 476.412 282.104 479.86 300.28C481.618 309.396 482.544 318.512 483.783 327.461C484.382 331.942 485.103 336.361 485.973 340.731C486.861 345.095 488.021 349.353 489.427 353.507C490.896 357.636 492.734 361.586 494.874 365.351L496.632 368.079C496.934 368.53 497.2 369.005 497.527 369.431L498.514 370.721C499.18 371.572 499.79 372.467 500.506 373.282L502.671 375.708C508.463 382.059 515.921 386.916 524.038 389.669C532.144 392.409 541.02 392.94 549.076 390.341C557.274 387.712 565.021 383.139 571.825 377.615C575.224 374.837 578.395 371.776 581.17 368.431C581.886 367.61 582.54 366.746 583.175 365.876C583.848 365.024 584.415 364.11 585.001 363.216C585.624 362.333 586.074 361.376 586.617 360.457C587.135 359.525 587.555 358.475 588.024 357.488C591.762 349.508 594.204 340.904 595.586 332.127C598.306 314.543 597.017 296.281 592.255 279.067C589.868 270.457 586.599 262.088 582.33 254.28L581.553 252.805L580.677 251.398L578.925 248.584C577.716 246.732 576.347 244.973 575.07 243.165C573.645 241.455 572.257 239.715 570.795 238.042C569.253 236.431 567.791 234.746 566.193 233.191C559.852 226.908 552.783 221.328 545.239 216.514C537.689 211.712 529.639 207.664 521.232 204.658L518.074 203.541L514.866 202.615C513.793 202.319 512.732 201.967 511.646 201.714L508.389 201.01C506.224 200.467 504.016 200.245 501.82 199.918L500.142 199.683C499.525 199.585 498.902 199.529 498.292 199.387C497.064 199.122 495.843 198.776 494.683 198.264C492.351 197.264 490.168 195.758 488.545 193.703C486.892 191.684 485.825 189.123 485.659 186.444C485.572 185.105 485.757 183.754 486.115 182.457C486.516 181.174 487.114 179.964 487.885 178.89C489.434 176.736 491.586 175.205 493.826 174.138C498.359 172.027 503.239 171.595 507.92 171.7C510.289 171.78 512.578 172.039 514.749 172.144C516.932 172.249 519.042 172.132 520.93 171.502C522.774 170.91 524.378 169.638 525.414 168.034C526.432 166.423 526.722 164.534 525.951 162.954C525.235 161.374 523.533 160.288 521.583 159.769C519.634 159.245 517.469 159.183 515.421 159.51H515.403C514.65 159.627 513.941 159.115 513.817 158.362C513.669 157.615 514.175 156.912 514.922 156.782Z" fill="#233940"/>
<path d="M224.259 91.1063C218.56 90.8717 212.842 92.5073 208.271 95.692C203.688 98.8336 200.233 103.555 198.58 108.764C198.383 109.418 198.185 110.073 198.05 110.739C197.963 111.066 197.896 111.4 197.84 111.733L197.643 112.819C197.328 114.523 196.798 116.201 195.983 117.812C195.774 118.226 195.515 118.646 195.262 119.059C194.916 119.497 194.682 119.911 194.201 120.343C193.806 120.769 193.238 121.176 192.628 121.509C192.295 121.657 191.949 121.793 191.604 121.91C191.246 121.991 190.882 122.052 190.524 122.102C189.075 122.194 187.977 121.818 187.082 121.478C186.182 121.12 185.448 120.725 184.769 120.368C179.649 117.609 174.203 115.547 168.639 113.973C165.844 113.214 163.025 112.572 160.176 112.06L159.109 111.881L158.59 111.801C158.578 111.795 158.436 111.801 158.362 111.795C158.004 111.758 157.702 111.838 157.394 111.924C156.795 112.128 156.24 112.659 155.932 113.338C155.79 113.683 155.722 114.041 155.704 114.399C155.734 114.751 155.759 115.109 155.926 115.448C155.987 115.634 156.105 115.763 156.209 115.979L156.863 116.917L158.159 118.8C159.88 121.312 161.514 123.879 163.13 126.459C169.552 136.797 175.103 147.66 179.606 158.911C179.89 159.627 179.545 160.436 178.835 160.72C178.163 160.991 177.398 160.689 177.077 160.053C171.704 149.357 165.653 139.044 158.899 129.23C157.202 126.78 155.463 124.367 153.693 121.978L152.354 120.195L151.682 119.306C151.398 118.874 151.046 118.405 150.818 117.893C150.294 116.88 150.041 115.739 149.955 114.597C149.918 113.449 150.09 112.307 150.479 111.239C151.268 109.122 152.909 107.271 155.111 106.339C156.197 105.888 157.4 105.635 158.547 105.691C158.849 105.703 159.084 105.691 159.448 105.74L160.046 105.826L161.206 106.005C164.29 106.493 167.343 107.172 170.335 108.067C176.331 109.801 182.104 112.301 187.508 115.393C188.149 115.757 188.735 116.084 189.229 116.294C189.722 116.522 190.099 116.596 190.16 116.596C190.21 116.603 190.179 116.658 190.444 116.436C190.555 116.387 190.697 116.134 190.839 116.004C190.975 115.776 191.129 115.566 191.271 115.313C191.863 114.257 192.307 113.054 192.585 111.813L192.831 110.684C192.918 110.276 193.016 109.881 193.134 109.48C193.349 108.684 193.621 107.906 193.898 107.129C196.218 100.975 200.554 95.692 206.087 92.2975C211.639 88.9646 218.208 87.5327 224.506 88.3474C225.265 88.4462 225.801 89.1374 225.703 89.8966C225.61 90.6125 224.987 91.131 224.278 91.1063H224.259Z" fill="#233940"/>
<path d="M382.152 282.925C381.141 286.517 380.222 290.146 379.253 293.75C378.273 297.355 377.397 300.984 376.576 304.625C374.917 311.902 373.473 319.222 372.209 326.573C369.661 341.268 367.934 356.093 367.015 370.961C366.102 385.823 365.942 400.747 366.651 415.603C367.003 423.151 367.077 430.564 368.526 437.52C369.242 440.982 370.334 444.297 371.962 447.179C372.764 448.568 373.782 449.993 374.911 451.431C376.027 452.869 377.224 454.332 378.402 455.9C379.568 457.461 380.765 459.14 381.733 461.158C382.208 462.171 382.627 463.263 382.899 464.454C383.158 465.645 383.281 466.954 383.121 468.256C382.837 470.941 381.455 473.323 379.704 475.021C377.933 476.736 375.768 477.921 373.381 478.489C370.963 479.026 368.613 478.89 366.404 478.366C364.202 477.835 362.179 476.903 360.366 475.736C359.909 475.446 359.465 475.138 359.039 474.817C358.626 474.527 358.096 474.07 357.701 473.706C356.874 472.934 356.202 472.169 355.554 471.422L351.964 467.108C350.805 465.763 349.62 464.516 348.411 463.584C347.196 462.646 346.018 462.14 345.056 462.164C344.809 462.158 344.562 462.195 344.303 462.263C344.173 462.282 344.044 462.331 343.914 462.38C343.772 462.424 343.655 462.473 343.563 462.522C343.156 462.707 342.724 463.065 342.255 463.602C341.299 464.664 340.398 466.374 338.893 468.126C337.314 469.972 335.124 471.2 333.12 471.91C331.078 472.638 329.098 473.008 327.229 473.323C323.454 474.008 319.654 474.465 315.854 474.78C300.606 476.039 285.475 474.737 270.529 472.786C268.616 472.509 266.581 472.132 264.588 471.274C262.621 470.416 260.684 469.058 259.432 466.972C258.167 464.892 257.988 462.263 258.624 460.103C259.24 457.912 260.505 456.048 262.072 454.579C263.645 453.11 265.588 452.011 267.741 451.53C268.801 451.283 269.961 451.215 271.004 451.302C272.04 451.37 273.058 451.542 274.038 451.795C277.999 452.801 281.354 454.851 284.556 456.782C285.216 457.177 285.425 458.035 285.031 458.69C284.642 459.338 283.809 459.547 283.155 459.183C279.917 457.35 276.691 455.579 273.323 454.851C272.484 454.665 271.645 454.548 270.812 454.523C269.992 454.486 269.264 454.56 268.505 454.752C267.006 455.134 265.6 455.98 264.477 457.103C263.355 458.22 262.51 459.622 262.146 461.053C261.782 462.491 261.942 463.899 262.658 465.028C263.367 466.164 264.638 467.09 266.094 467.682C267.562 468.281 269.252 468.583 271.041 468.793C285.802 470.392 300.742 471.324 315.367 469.781C319.019 469.398 322.652 468.873 326.236 468.139C329.857 467.466 333.101 466.565 334.742 464.522C335.692 463.436 336.531 461.769 338.005 459.979C338.745 459.097 339.726 458.153 340.997 457.505C341.317 457.338 341.632 457.196 341.934 457.091C342.237 456.974 342.545 456.863 342.878 456.789C343.52 456.61 344.21 456.505 344.895 456.492C346.277 456.443 347.628 456.745 348.781 457.214C349.947 457.683 350.946 458.307 351.841 458.967C353.623 460.294 355.036 461.782 356.344 463.244C357.645 464.707 358.842 466.182 360.014 467.515C360.6 468.176 361.186 468.799 361.735 469.299C362.037 469.565 362.216 469.719 362.568 469.966C362.888 470.2 363.222 470.422 363.561 470.632C366.238 472.311 369.384 473.12 371.95 472.521C373.208 472.218 374.442 471.527 375.349 470.626C376.262 469.719 376.829 468.639 376.928 467.571C377.07 466.472 376.774 465.182 376.126 463.8C375.478 462.43 374.522 461.016 373.455 459.578C372.394 458.146 371.222 456.702 370.05 455.178C368.878 453.659 367.7 452.036 366.639 450.172C364.616 446.5 363.437 442.575 362.685 438.699C361.192 430.922 361.266 423.25 361.007 415.844C360.514 400.747 360.828 385.651 362.037 370.616C363.277 355.587 365.331 340.632 368.212 325.844C369.674 318.456 371.364 311.112 373.233 303.829C374.164 300.181 375.151 296.552 376.243 292.954C377.323 289.35 378.347 285.739 379.469 282.147C379.697 281.419 380.475 281.011 381.202 281.233C381.949 281.449 382.356 282.202 382.152 282.925Z" fill="#233940"/>
<path d="M357.812 480.847C354.691 480.051 351.958 478.224 349.787 476.045C347.597 473.86 345.87 471.336 344.389 468.731C341.466 463.491 339.393 457.924 337.715 452.295C334.403 441.013 332.46 429.471 330.695 418.004C327.013 395.112 324.589 371.943 322.405 348.921L320.74 331.683C320.437 328.819 320.123 325.986 319.74 323.147L318.55 314.618C317.803 308.915 316.749 303.304 315.503 297.743C314.22 292.195 312.739 286.702 310.778 281.406C308.828 276.111 306.454 270.988 303.345 266.408C300.248 261.841 296.356 257.829 291.619 255.237C289.25 253.96 286.696 253.046 284.038 252.528C281.379 252.015 278.634 251.892 275.883 252.077C273.132 252.268 270.381 252.781 267.667 253.503C264.959 254.262 262.3 255.237 259.685 256.33L259.66 256.342C258.951 256.638 258.136 256.305 257.84 255.595C257.55 254.904 257.865 254.114 258.531 253.799C261.202 252.546 263.941 251.417 266.772 250.497C269.616 249.608 272.552 248.936 275.562 248.596C281.564 247.88 287.942 248.831 293.481 251.657C299.021 254.484 303.517 258.916 307.04 263.798C310.574 268.704 313.251 274.092 315.459 279.592C317.668 285.097 319.407 290.751 320.832 296.453C322.239 302.156 323.448 307.909 324.323 313.673L325.718 322.314C326.18 325.202 326.495 328.122 326.834 331.01C327.488 336.8 328.018 342.57 328.512 348.341C329.56 359.876 330.424 371.4 331.571 382.892C332.127 388.638 332.743 394.378 333.416 400.105C334.063 405.827 334.908 411.536 335.606 417.3C337.055 428.749 338.671 440.149 341.595 451.184C343.045 456.69 344.827 462.115 347.375 467.083C348.658 469.552 350.157 471.904 351.995 473.879C353.827 475.848 356.023 477.415 358.509 478.15L358.54 478.162C359.274 478.378 359.687 479.15 359.471 479.884C359.268 480.612 358.527 481.026 357.812 480.847Z" fill="#233940"/>
<path d="M222.958 135.865C224.266 137.001 225.425 138.223 226.529 139.482C227.634 140.741 228.688 142.031 229.675 143.37C230.638 144.722 231.187 146.327 231.853 147.864C232.488 149.419 233.074 151.005 233.518 152.684C233.722 153.462 233.259 154.258 232.482 154.461C232.007 154.585 231.513 154.455 231.162 154.159C229.848 153.03 228.67 151.82 227.547 150.567C226.455 149.302 225.246 148.104 224.444 146.654C223.673 145.185 222.97 143.673 222.31 142.13C221.656 140.587 221.058 139.007 220.602 137.34C220.392 136.569 220.848 135.773 221.619 135.563C222.113 135.433 222.606 135.563 222.958 135.865Z" fill="#233940"/>
<path d="M187.57 157.992C188.68 158.757 189.648 159.615 190.567 160.504C191.474 161.405 192.356 162.318 193.146 163.3C193.917 164.287 194.287 165.546 194.774 166.725C195.231 167.929 195.632 169.163 195.897 170.49C196.057 171.305 195.527 172.095 194.719 172.255C194.312 172.335 193.905 172.243 193.59 172.027C192.467 171.268 191.48 170.422 190.549 169.539C189.648 168.638 188.631 167.811 188.014 166.713C187.415 165.608 186.91 164.441 186.435 163.256C185.966 162.065 185.546 160.837 185.275 159.516C185.108 158.708 185.627 157.918 186.428 157.751C186.836 157.677 187.249 157.776 187.57 157.992Z" fill="#233940"/>
<path d="M202.3 191.641C200.832 191.185 199.277 191.16 197.803 191.604C196.335 192.042 194.953 192.851 193.849 193.931C192.726 194.98 191.851 196.27 191.419 197.634C190.95 199.011 190.827 200.566 191.012 202.066C191.351 205.09 192.862 208.053 194.99 210.311C197.118 212.577 199.962 214.144 202.991 215.021C209.06 216.761 216.074 215.749 220.78 211.311C225.512 206.911 228.041 199.77 226.684 193.048L226.677 193.011C226.523 192.258 227.01 191.524 227.763 191.37C228.454 191.228 229.126 191.629 229.355 192.277C230.662 196.03 230.878 200.196 229.959 204.121C229.12 208.071 227.165 211.793 224.383 214.866C221.582 217.921 217.776 220.236 213.687 221.217C209.609 222.26 205.261 222.168 201.245 220.909C199.228 220.322 197.297 219.403 195.527 218.249C193.757 217.094 192.11 215.718 190.734 214.07C188.014 210.811 186.219 206.75 186.052 202.393C185.978 200.22 186.33 198.029 187.224 195.974C188.112 193.894 189.55 192.166 191.24 190.839C192.93 189.506 194.941 188.623 197.057 188.241C199.172 187.839 201.455 188.142 203.392 189.098C204.076 189.438 204.36 190.265 204.021 190.95C203.719 191.567 203.009 191.857 202.368 191.66L202.3 191.641Z" fill="#233940"/>
<path d="M238.595 202.029C244.56 203.825 251.185 202.874 256.446 199.801C259.068 198.258 261.381 196.233 263.059 193.777C263.515 193.19 263.848 192.512 264.237 191.882C264.552 191.203 264.928 190.561 265.175 189.851C265.767 188.481 266.131 187.018 266.427 185.556C267.531 179.68 266.217 173.366 262.689 168.811C260.912 166.552 258.624 164.676 256.095 163.633C254.836 163.108 253.522 162.781 252.221 162.676C250.962 162.578 249.655 162.713 248.409 163.077C247.163 163.442 245.985 164.028 244.979 164.787C243.943 165.552 243.153 166.404 242.469 167.552C241.075 169.811 240.285 173.045 238.545 176.458C237.67 178.143 236.411 179.902 234.9 181.205C233.395 182.538 231.661 183.575 229.829 184.29C226.165 185.753 222.15 185.877 218.443 184.945C216.586 184.476 214.785 183.729 213.169 182.667C212.749 182.433 212.379 182.106 211.984 181.828C211.596 181.55 211.213 181.223 210.849 180.884C210.121 180.198 209.474 179.445 208.906 178.631C207.777 177.001 206.969 175.125 206.679 173.095C206.537 172.082 206.531 171.039 206.673 170.015C206.858 168.99 207.117 167.947 207.605 167.021C208.53 165.133 210.016 163.651 211.67 162.621C213.329 161.584 215.167 160.954 217.042 160.701C218.918 160.467 220.836 160.596 222.656 161.133C224.475 161.67 226.19 162.652 227.535 164.022C228.071 164.565 228.065 165.447 227.522 165.984C227.004 166.497 226.178 166.515 225.635 166.046L225.604 166.015C223.47 164.145 220.404 163.577 217.604 164.139C214.816 164.719 212.237 166.441 211.312 168.731C210.837 169.848 210.726 171.113 210.991 172.379C211.25 173.632 211.836 174.86 212.644 175.921C213.051 176.452 213.508 176.946 214.014 177.372C214.507 177.785 215.112 178.186 215.698 178.538C216.888 179.248 218.227 179.729 219.596 180.007C222.335 180.569 225.271 180.31 227.745 179.205C228.984 178.662 230.107 177.921 231.057 177.02C232.032 176.106 232.685 175.088 233.308 173.817C234.554 171.286 235.171 167.892 237.182 164.411C238.163 162.682 239.631 161.01 241.266 159.8C242.919 158.572 244.782 157.702 246.725 157.152C248.674 156.609 250.722 156.418 252.77 156.609C254.768 156.825 256.699 157.387 258.476 158.195C262.041 159.819 264.952 162.417 267.179 165.429C271.602 171.582 272.922 179.464 271.281 186.562C270.837 188.333 270.307 190.086 269.505 191.74C269.159 192.586 268.666 193.363 268.234 194.172C267.722 194.931 267.266 195.727 266.673 196.437C264.453 199.375 261.535 201.677 258.358 203.349C251.956 206.577 244.294 207.219 237.663 204.639C236.948 204.362 236.596 203.559 236.874 202.843C237.139 202.164 237.873 201.813 238.558 202.016L238.595 202.029Z" fill="#233940"/>
<path d="M164.543 398.032C163.79 395.347 160.595 393.847 158.226 394.174C157.647 394.279 157.135 394.452 156.703 394.705C156.29 394.989 155.969 395.341 155.679 395.729C155.426 396.155 155.229 396.643 155.105 397.18C155.019 397.729 154.994 398.303 155.031 398.877C155.099 399.445 155.216 400 155.383 400.519C155.58 401.019 155.802 401.469 156.086 401.864C156.394 402.216 156.74 402.531 157.165 402.772C157.61 402.969 158.128 403.117 158.714 403.154C159.3 403.16 159.929 403.068 160.564 402.877C161.175 402.648 161.798 402.364 162.359 401.975C162.902 401.574 163.371 401.081 163.784 400.537C164.16 399.982 164.413 399.359 164.574 398.667L164.617 398.488C164.796 397.741 165.542 397.279 166.289 397.458C166.881 397.599 167.288 398.099 167.349 398.667C167.467 399.791 167.306 400.945 166.936 402.037C166.541 403.111 165.912 404.074 165.172 404.938C164.407 405.771 163.519 406.506 162.507 407.061C161.483 407.598 160.367 407.999 159.158 408.197C157.943 408.357 156.647 408.314 155.37 407.962C154.106 407.567 152.903 406.901 151.916 406C150.96 405.08 150.201 404 149.683 402.833C149.196 401.667 148.943 400.439 148.869 399.21C148.844 397.976 149.005 396.742 149.381 395.55C149.782 394.359 150.393 393.211 151.231 392.193C152.101 391.193 153.205 390.403 154.408 389.872C155.63 389.385 156.894 389.162 158.122 389.199C159.337 389.261 160.49 389.533 161.564 389.952C162.618 390.415 163.587 391.02 164.438 391.755C165.271 392.526 165.974 393.433 166.498 394.446C167.004 395.476 167.282 396.612 167.294 397.735C167.306 398.501 166.689 399.13 165.925 399.143C165.283 399.149 164.734 398.723 164.568 398.13L164.543 398.032Z" fill="#233940"/>
<path d="M189.63 214.2C182.777 219.946 176.596 226.439 171.236 233.555C165.906 240.696 161.311 248.368 157.517 256.428C149.862 272.531 145.106 289.93 142.522 307.582C141.239 316.414 140.363 325.314 140.042 334.232C139.888 338.694 139.857 343.163 140.023 347.613C140.116 349.841 140.227 352.063 140.4 354.285L140.85 361.068C141.017 363.277 141.245 365.444 141.633 367.536C142.028 369.616 142.589 371.634 143.459 373.331C144.341 375.022 145.519 376.251 147.018 376.751C147.771 377.01 148.635 377.096 149.547 377.041C149.776 377.016 150.016 377.01 150.232 376.979C150.436 376.936 150.652 376.911 150.855 376.862C151.268 376.757 151.676 376.615 152.077 376.43C153.668 375.695 155.056 374.307 155.821 372.665C156.598 371.023 156.728 369.171 156.117 367.456C155.531 365.758 154.186 364.351 152.601 363.993C150.966 363.592 148.992 364.203 148.135 365.518L148.123 365.536C147.703 366.178 146.846 366.363 146.198 365.944C145.569 365.536 145.384 364.703 145.766 364.067C146.525 362.796 147.734 361.833 149.048 361.333C150.368 360.808 151.799 360.679 153.205 360.913C156.129 361.432 158.337 363.672 159.361 366.172C160.447 368.678 160.379 371.696 159.3 374.189C158.245 376.689 156.351 378.8 153.884 380.083C153.267 380.404 152.613 380.664 151.941 380.861C151.602 380.96 151.25 381.028 150.905 381.108C150.565 381.17 150.238 381.201 149.905 381.244C148.567 381.38 147.129 381.324 145.723 380.917C144.31 380.516 142.984 379.744 141.929 378.775C140.868 377.806 140.054 376.683 139.4 375.535C138.124 373.233 137.414 370.85 136.884 368.505C136.366 366.16 136.045 363.82 135.798 361.518L135.126 354.76C134.867 352.47 134.688 350.174 134.534 347.878C134.237 343.286 134.145 338.688 134.182 334.09C134.207 329.492 134.404 324.9 134.805 320.32C134.984 318.031 135.231 315.747 135.483 313.457C135.773 311.18 136.088 308.902 136.452 306.631C137.858 297.546 139.993 288.572 142.738 279.789C145.452 271 148.9 262.427 153.07 254.213C157.277 246.016 162.304 238.233 168.059 231.049C173.925 223.945 180.562 217.477 187.927 212.003C188.538 211.546 189.408 211.675 189.864 212.286C190.302 212.879 190.204 213.706 189.648 214.169L189.63 214.2Z" fill="#233940"/>
<path d="M141.017 388.354C141.892 389.835 142.238 391.613 142.096 393.279C141.96 394.958 141.399 396.544 140.56 397.939C139.715 399.334 138.574 400.556 137.204 401.494C135.841 402.444 134.157 403.037 132.56 403.253C129.278 403.722 126.015 402.833 123.282 401.303C120.525 399.778 118.187 397.47 116.497 394.927C114.782 392.372 113.561 389.601 112.562 386.842C111.556 384.064 110.81 381.33 109.996 378.59C108.441 373.091 106.979 367.554 105.813 361.938C104.617 356.334 103.63 350.68 102.92 344.984C102.507 342.144 102.279 339.274 101.977 336.423L101.668 332.121C101.551 330.689 101.477 329.251 101.44 327.813C101.138 322.067 101.249 316.302 101.477 310.544C101.804 304.792 102.31 299.039 103.235 293.343C103.42 291.911 103.673 290.491 103.944 289.078L104.728 284.819L105.708 280.604C106.029 279.197 106.356 277.789 106.757 276.407C107.516 273.623 108.25 270.834 109.194 268.106C109.65 266.742 110.057 265.353 110.557 264.001L112.056 259.946C116.102 249.158 121.228 238.801 127.23 229.019C139.215 209.423 154.297 191.956 171.131 176.637C171.698 176.119 172.574 176.162 173.092 176.73C173.592 177.279 173.561 178.131 173.043 178.649C165.049 186.617 157.499 194.999 150.479 203.775C143.484 212.57 137.106 221.847 131.554 231.568C120.358 250.972 112.821 272.309 109.299 294.287C105.665 316.284 106.51 338.935 110.686 360.95C111.673 366.468 112.963 371.943 114.344 377.386C115.782 382.842 117.095 388.286 119.877 392.699C121.265 394.902 122.999 396.754 125.164 398.062C127.298 399.371 129.778 400.111 132.153 399.858C133.362 399.735 134.435 399.395 135.428 398.772C136.415 398.155 137.303 397.291 137.957 396.291C139.283 394.291 139.696 391.705 138.623 389.724L138.617 389.718C138.253 389.045 138.5 388.206 139.172 387.842C139.82 387.484 140.64 387.718 141.017 388.354Z" fill="#233940"/>
<path d="M133.448 405C134.348 405.358 135.126 405.666 135.878 405.919C136.625 406.185 137.359 406.358 138.05 406.549C138.722 406.753 139.265 407.333 139.962 407.722C140.64 408.141 141.38 408.549 142.244 409.005L142.398 409.086C143.145 409.481 143.435 410.412 143.034 411.159C142.892 411.425 142.682 411.635 142.435 411.777C141.393 412.369 140.215 412.653 139.018 412.721C137.84 412.758 136.551 412.758 135.49 412.165C134.447 411.56 133.534 410.74 132.788 409.82C132.048 408.894 131.474 407.826 131.227 406.66C131.055 405.839 131.579 405.031 132.399 404.858C132.708 404.796 133.01 404.827 133.281 404.932L133.448 405Z" fill="#233940"/>
<path d="M166.474 405.833C167.14 405.561 167.646 405.333 168.102 405.105C168.552 404.889 168.941 404.642 169.293 404.463C169.644 404.302 170.107 404.568 170.613 404.605C171.118 404.679 171.686 404.734 172.414 404.771L172.802 404.79C173.697 404.833 174.388 405.592 174.345 406.481C174.338 406.592 174.32 406.715 174.295 406.82C174.048 407.746 173.506 408.542 172.821 409.19C172.136 409.801 171.334 410.474 170.384 410.542C169.441 410.591 168.497 410.406 167.633 410.061C166.776 409.709 165.986 409.166 165.431 408.4C164.913 407.684 165.08 406.678 165.795 406.16C165.9 406.086 166.005 406.024 166.122 405.981L166.474 405.833Z" fill="#233940"/>
<path d="M160.879 372.554C161.829 372.992 163.087 372.887 164.13 372.35C164.642 372.066 165.11 371.72 165.53 371.258C165.955 370.789 166.35 370.214 166.807 369.566C167.269 368.925 167.806 368.172 168.614 367.511C169.416 366.851 170.508 366.388 171.501 366.283C173.487 366.048 175.251 366.474 176.867 367.098C178.477 367.727 179.853 368.505 181.228 369.246C182.61 369.998 183.967 370.782 185.318 371.591C188.008 373.214 190.641 374.924 193.195 376.738C195.749 378.553 198.241 380.454 200.684 382.404C203.126 384.336 205.526 386.434 207.833 388.323C212.527 392.113 217.56 395.427 222.989 397.575C225.697 398.643 228.497 399.414 231.335 399.828C234.172 400.247 237.059 400.241 239.909 399.902C242.752 399.537 245.608 398.914 248.378 397.933C251.154 396.995 253.874 395.84 256.471 394.439C261.702 391.718 266.482 388.138 270.461 383.941C272.367 381.787 274.174 379.54 275.507 377.072C275.908 376.485 276.123 375.825 276.444 375.208C276.746 374.584 277.055 373.961 277.246 373.301C277.462 372.652 277.709 372.004 277.9 371.362C278.073 370.721 278.208 370.066 278.319 369.412C279.146 364.16 277.795 358.457 274.131 355.112C272.305 353.408 269.912 352.229 267.333 351.532C264.743 350.841 261.992 350.705 259.173 350.97C253.547 351.495 247.761 353.581 242.253 355.84L240.186 356.729L239.15 357.173L238.151 357.685L234.129 359.71C231.538 361.228 228.91 362.691 226.455 364.444C216.469 371.171 207.87 379.979 201.196 390.057C197.908 395.131 195.138 400.537 192.868 406.154L191.345 410.437C191.067 411.147 190.87 411.875 190.672 412.61L190.068 414.801L189.463 416.998L188.97 419.22L188.18 423.701L188.168 423.787C188.032 424.54 187.317 425.046 186.564 424.917C185.83 424.787 185.33 424.096 185.429 423.361L186.071 418.677L186.49 416.35L187.027 414.048L187.57 411.746C187.742 410.974 187.927 410.209 188.18 409.462L189.593 404.944C191.715 398.994 194.509 393.298 197.791 387.897C204.483 377.183 213.236 367.709 223.568 360.327C226.104 358.414 228.836 356.79 231.538 355.112L235.739 352.847L236.794 352.285L237.879 351.791L240.057 350.804L242.234 349.816L244.473 348.971C245.972 348.427 247.44 347.81 248.976 347.329C252.03 346.348 255.219 345.527 258.556 345.144C261.874 344.761 265.397 344.842 268.808 345.675C272.206 346.496 275.544 348.1 278.282 350.594C281.034 353.106 282.927 356.433 283.877 359.883C284.827 363.345 284.944 366.937 284.377 370.406C284.223 371.27 284.038 372.134 283.803 372.986C283.55 373.819 283.248 374.621 282.964 375.436C282.705 376.263 282.329 377.028 281.959 377.794C281.57 378.547 281.262 379.361 280.793 380.059L279.467 382.213C279.004 382.91 278.48 383.558 277.986 384.237L277.234 385.237L276.413 386.169C275.864 386.786 275.328 387.422 274.76 388.014C270.152 392.717 264.823 396.538 259.037 399.433C256.162 400.914 253.158 402.136 250.062 403.13C246.984 404.154 243.752 404.821 240.47 405.179C233.882 405.907 227.084 404.765 221.095 402.161C215.068 399.593 209.764 395.865 204.952 391.779C202.528 389.687 200.326 387.663 197.963 385.694C195.626 383.725 193.245 381.818 190.802 379.991C188.359 378.17 185.879 376.399 183.326 374.745C182.049 373.918 180.76 373.115 179.452 372.344C178.132 371.572 176.83 370.789 175.572 370.252C174.937 369.98 174.314 369.77 173.691 369.634C173.068 369.517 172.432 369.455 171.902 369.505C171.359 369.548 170.97 369.715 170.557 370.005C170.15 370.301 169.737 370.795 169.286 371.393C168.83 371.986 168.336 372.683 167.695 373.338C167.047 373.998 166.252 374.572 165.388 374.992C163.661 375.794 161.533 375.967 159.67 375.053C158.985 374.714 158.701 373.887 159.041 373.202C159.374 372.529 160.182 372.245 160.86 372.554H160.879Z" fill="#233940"/>
<path d="M23.6932 404.302C22.9159 401.408 22.0894 398.513 21.3923 395.587L20.3931 391.187L19.8934 388.983L19.474 386.768L18.6597 382.324C18.3883 380.843 18.2094 379.343 17.975 377.855C17.4939 374.874 17.1855 371.875 16.8524 368.869C16.2787 362.858 15.9456 356.803 16.0073 350.742C16.0258 344.681 16.3527 338.608 17.1176 332.578C17.8023 326.542 18.9867 320.549 20.6028 314.685C22.2127 308.822 24.1064 303.02 26.4751 297.422C28.8315 291.812 31.5641 286.368 34.7593 281.196C37.9484 276.024 41.5754 271.099 45.8008 266.711C46.3313 266.155 47.2133 266.143 47.7685 266.674C48.2867 267.174 48.336 267.982 47.8919 268.538L47.8795 268.556C40.57 277.697 35.2158 288.319 31.1878 299.274C27.2277 310.291 24.7233 321.771 23.2059 333.368C22.9961 334.818 22.8049 336.263 22.6754 337.725C22.5273 339.182 22.3423 340.632 22.2127 342.095C22.003 345.014 21.7439 347.94 21.6823 350.872C21.5342 353.803 21.5527 356.741 21.528 359.679C21.5219 361.148 21.6021 362.617 21.6329 364.086C21.6884 365.555 21.6946 367.03 21.7995 368.499C21.9722 371.437 22.1202 374.381 22.441 377.318C22.589 378.787 22.6939 380.262 22.8789 381.725L23.4526 386.12L23.724 388.323L24.0694 390.514L24.7603 394.902C24.97 396.371 25.3031 397.816 25.5684 399.272L26.3764 403.648L26.3888 403.697C26.5306 404.45 26.031 405.172 25.2784 405.308C24.5629 405.438 23.8782 404.987 23.6932 404.302Z" fill="#233940"/>
<path d="M252.609 180.507C253.806 176.199 256.292 172.187 259.635 169.046C262.972 165.892 267.154 163.516 271.775 162.411C274.082 161.874 276.475 161.763 278.8 161.997C281.132 162.22 283.408 162.744 285.567 163.534C289.891 165.083 293.796 167.737 296.615 171.218C297.102 171.817 297.01 172.7 296.405 173.187C295.893 173.601 295.184 173.594 294.684 173.218L294.666 173.206C291.483 170.805 287.874 169.194 284.148 168.398C282.286 168.015 280.392 167.836 278.535 167.873C276.672 167.916 274.847 168.126 273.051 168.459C269.449 169.089 265.921 170.613 262.843 172.86C259.771 175.113 257.094 178.044 255.182 181.538L255.175 181.556C254.805 182.229 253.96 182.476 253.288 182.112C252.702 181.785 252.443 181.118 252.609 180.507Z" fill="#233940"/>
<path d="M253.405 189.746C256.273 187.512 259.808 186.037 263.515 185.506C267.222 184.963 271.127 185.284 274.773 186.599C276.592 187.272 278.27 188.265 279.763 189.469C281.262 190.66 282.594 192.024 283.741 193.518C286.048 196.474 287.634 199.967 288.146 203.578C288.257 204.343 287.726 205.059 286.955 205.164C286.332 205.25 285.746 204.917 285.493 204.38L285.481 204.356C284.105 201.473 282.23 198.967 279.997 196.924C278.875 195.912 277.659 195.03 276.395 194.283C275.118 193.542 273.816 192.913 272.496 192.339C269.869 191.154 266.914 190.506 263.891 190.475C260.869 190.45 257.772 190.969 254.805 192.141L254.781 192.154C254.065 192.437 253.251 192.086 252.967 191.37C252.733 190.777 252.93 190.117 253.405 189.746Z" fill="#233940"/>
<path d="M203.373 204.862C200.4 202.387 196.995 200.621 193.454 199.541C189.907 198.467 186.2 198.147 182.666 198.597C180.895 198.807 179.137 199.116 177.379 199.566C175.628 200.029 173.907 200.683 172.247 201.51C168.947 203.189 165.937 205.547 163.433 208.503L163.42 208.515C162.921 209.108 162.038 209.176 161.446 208.676C160.947 208.256 160.823 207.559 161.089 206.997C162.97 203.103 165.98 199.714 169.613 197.178C171.427 195.894 173.401 194.82 175.498 193.993C177.589 193.153 179.822 192.604 182.098 192.444C186.65 192.154 191.184 193.061 195.218 194.882C199.259 196.696 202.812 199.498 205.39 202.961C205.847 203.578 205.723 204.448 205.106 204.911C204.582 205.306 203.867 205.269 203.385 204.862H203.373Z" fill="#233940"/>
<path d="M209.973 208.836C208.419 211.089 207.019 213.36 205.822 215.712C204.619 218.057 203.626 220.477 202.806 222.933C201.96 225.371 200.899 227.753 200.221 230.309C199.505 232.845 198.987 235.468 198.611 238.178V238.196C198.506 238.968 197.791 239.505 197.02 239.4C196.421 239.32 195.965 238.869 195.841 238.314C195.188 235.444 195.015 232.45 195.212 229.469C195.453 226.507 195.878 223.47 197.057 220.699C198.259 217.94 199.82 215.354 201.652 213.002C203.49 210.657 205.618 208.552 208.03 206.868C208.666 206.423 209.541 206.577 209.986 207.213C210.331 207.707 210.313 208.343 209.992 208.812L209.973 208.836Z" fill="#233940"/>
<path d="M216.358 213.688C223.908 214.749 231.211 217.817 237.602 222.18C240.778 224.408 243.449 227.284 245.88 230.259C248.304 233.246 250.401 236.499 252.005 239.962C252.332 240.665 252.023 241.498 251.32 241.825C250.74 242.097 250.068 241.93 249.667 241.467L249.661 241.461C247.292 238.702 244.819 236.116 242.191 233.734C239.569 231.339 236.695 229.303 233.931 227.155C228.448 222.766 222.292 219.205 215.617 216.36L215.611 216.354C214.902 216.051 214.575 215.231 214.871 214.521C215.13 213.928 215.747 213.601 216.358 213.688Z" fill="#233940"/>
<path d="M435.552 462.306C431.599 459.967 427.589 457.764 423.37 456.344C421.266 455.634 419.107 455.147 416.942 454.986C414.777 454.832 412.606 454.949 410.632 455.554C406.66 456.813 403.076 459.788 401.429 463.516C400.639 465.374 400.393 467.386 400.849 469.262C401.379 471.12 402.422 472.873 403.995 474.138C405.537 475.446 407.455 476.409 409.509 477.094C411.564 477.786 413.735 478.255 415.955 478.563C418.158 478.884 420.471 479.026 422.753 479.23C425.041 479.44 427.336 479.526 429.631 479.68C438.809 480.131 448.013 480.02 457.191 479.495C466.37 478.983 475.518 477.927 484.604 476.514C489.15 475.817 493.671 474.971 498.187 474.082C500.438 473.595 502.696 473.15 504.935 472.632L511.72 471.083C516.272 470.101 520.726 469.182 524.914 467.719C529.053 466.269 533.051 464.244 535.425 461.146C536.018 460.381 536.48 459.541 536.844 458.665C537.035 458.233 537.159 457.77 537.301 457.313C537.405 456.875 537.48 456.443 537.517 455.992C537.658 454.202 537.183 452.308 536.258 450.623C534.432 447.185 530.793 445.062 526.691 443.951C522.57 442.834 518.055 442.624 513.454 442.433L509.956 442.278L506.446 442.05C504.127 441.883 501.801 441.71 499.47 441.494C494.8 441.069 490.1 440.458 485.424 439.452C480.767 438.421 476.091 436.958 471.749 434.872C467.4 432.81 463.218 430.373 459.381 427.478C455.563 424.571 451.985 421.355 448.728 417.85C445.515 414.307 442.547 410.561 439.889 406.604C437.28 402.623 434.874 398.507 432.795 394.236C428.65 385.688 425.516 376.67 423.475 367.412C423.203 366.258 422.95 365.098 422.747 363.931L422.105 360.432C421.766 358.087 421.377 355.741 421.168 353.377C420.878 351.02 420.761 348.65 420.594 346.28C420.532 343.903 420.403 341.533 420.483 339.151C420.508 334.392 420.89 329.634 421.581 324.906C421.889 322.536 422.389 320.197 422.852 317.845C423.432 315.519 423.968 313.179 424.733 310.896C426.189 306.304 427.984 301.829 430.254 297.571C432.493 293.293 435.207 289.208 438.445 285.498C441.721 281.826 445.539 278.536 449.937 276.08C454.409 273.667 459.295 272.105 464.365 271.71C466.894 271.506 469.46 271.568 472.002 271.945C474.543 272.327 477.054 273.062 479.435 274.136C481.803 275.21 484.086 276.629 486.01 278.376C487.953 280.11 489.65 282.097 491.068 284.233C492.45 286.387 493.579 288.664 494.498 290.985C495.405 293.312 496.077 295.688 496.632 298.064C497.712 302.817 498.187 307.656 498.427 312.334C498.668 316.796 499.303 321.191 500.413 325.48C501.511 329.776 503.078 333.973 504.904 338.108C505.354 339.17 505.842 340.108 506.317 341.077C506.779 342.052 507.384 342.941 507.908 343.879C509.099 345.656 510.345 347.403 511.831 348.921C513.256 350.507 514.909 351.841 516.606 353.093C517.5 353.649 518.351 354.291 519.301 354.748C519.77 354.994 520.226 355.254 520.701 355.488L522.151 356.118C529.936 359.37 539.207 359.019 547.127 355.834C555.09 352.606 561.567 346.162 565.231 338.312C565.669 337.318 566.126 336.349 566.514 335.275L567.119 333.707L567.662 332.115C568.402 329.998 569 327.838 569.549 325.665C570.616 321.314 571.27 316.864 571.529 312.396C571.788 307.927 571.634 303.434 571.023 298.996C570.869 297.885 570.715 296.781 570.493 295.682C570.308 294.577 570.061 293.485 569.808 292.398C569.586 291.306 569.247 290.214 568.957 289.121C568.655 288.029 568.377 286.93 568.007 285.862C565.33 277.203 561.512 268.889 556.805 261.125C554.449 257.237 551.815 253.527 549.039 249.935C546.214 246.374 543.173 242.992 539.972 239.77C533.458 233.475 526.271 227.704 518.259 223.637C514.255 221.6 510.042 220.008 505.681 218.853C501.326 217.718 496.731 216.903 492.16 215.7C487.595 214.508 482.963 212.91 478.818 210.231C474.648 207.596 471.206 203.8 468.899 199.467C466.58 195.141 465.334 190.185 465.469 185.272C465.58 180.359 466.968 175.446 469.571 171.268C472.23 167.132 475.943 163.67 480.317 161.473C484.684 159.269 489.588 158.214 494.436 158.337C495.201 158.356 495.806 158.992 495.787 159.763C495.769 160.522 495.139 161.127 494.381 161.115H494.362C489.952 161.065 485.554 162.084 481.668 164.096C477.782 166.114 474.531 169.243 472.224 172.916C469.978 176.637 468.813 180.97 468.769 185.315C468.702 189.679 469.855 193.999 471.952 197.807C474.05 201.621 477.084 204.868 480.773 207.151C484.456 209.484 488.7 210.935 493.092 212.04C497.496 213.157 502.042 213.916 506.662 215.076C511.27 216.255 515.785 217.909 520.054 220.038C528.628 224.309 536.104 230.222 542.951 236.715C546.313 240.036 549.508 243.523 552.475 247.195C555.399 250.904 558.168 254.737 560.648 258.755C565.614 266.791 569.666 275.407 572.553 284.43C572.948 285.548 573.25 286.696 573.577 287.831C573.892 288.973 574.249 290.096 574.502 291.275C574.786 292.442 575.057 293.608 575.267 294.787C575.514 295.96 575.693 297.145 575.866 298.33C576.563 303.07 576.772 307.884 576.538 312.667C576.304 317.45 575.65 322.215 574.546 326.875C573.978 329.202 573.355 331.516 572.59 333.781L572.023 335.485L571.393 337.164C570.999 338.281 570.493 339.416 569.999 340.546C568.945 342.774 567.773 344.959 566.329 346.977C565.657 348.02 564.849 348.964 564.09 349.946C563.689 350.421 563.264 350.872 562.85 351.334C562.443 351.804 562.011 352.254 561.555 352.674C558.033 356.192 553.789 358.969 549.206 360.92C544.592 362.79 539.669 363.882 534.698 363.981C529.732 364.073 524.643 363.345 519.986 361.382C510.53 357.661 503.306 349.458 499.538 340.503C497.594 336.176 495.874 331.671 494.64 326.992C493.4 322.314 492.672 317.494 492.382 312.704C492.117 308.137 491.642 303.718 490.68 299.422C490.18 297.293 489.588 295.194 488.811 293.207C488.021 291.22 487.083 289.331 485.961 287.584C483.666 284.147 480.613 281.314 476.912 279.697C475.074 278.87 473.1 278.283 471.064 277.975C469.022 277.678 466.931 277.623 464.846 277.789C460.67 278.098 456.544 279.431 452.873 281.406C449.172 283.468 445.86 286.301 442.979 289.535C440.117 292.806 437.662 296.484 435.608 300.416C433.517 304.335 431.845 308.501 430.501 312.735C429.791 314.846 429.273 317.025 428.718 319.191C428.268 321.388 427.78 323.573 427.484 325.801C426.806 330.239 426.411 334.738 426.355 339.25C426.263 341.503 426.374 343.761 426.417 346.02C426.559 348.273 426.651 350.532 426.917 352.785C427.102 355.038 427.46 357.278 427.768 359.518L428.36 362.864C428.545 363.981 428.78 365.086 429.032 366.19C430.926 375.041 433.856 383.676 437.748 391.829C439.691 395.908 441.955 399.821 444.392 403.605C446.878 407.357 449.654 410.906 452.639 414.245C455.668 417.553 458.986 420.571 462.515 423.299C466.062 426.015 469.911 428.286 473.908 430.218C481.896 434.119 490.828 435.674 499.926 436.563C502.202 436.785 504.497 436.977 506.798 437.156L510.215 437.402L513.657 437.575C518.29 437.81 523.113 438.02 527.949 439.353C530.355 440.025 532.773 441.019 534.95 442.494C537.165 443.932 539.083 446.025 540.354 448.395C541.637 450.771 542.365 453.548 542.118 456.394C542.056 457.103 541.927 457.807 541.754 458.498C541.563 459.152 541.366 459.807 541.088 460.436C540.558 461.695 539.873 462.893 539.04 463.96C537.375 466.09 535.284 467.725 533.106 468.984C530.922 470.256 528.646 471.2 526.358 471.984C521.781 473.545 517.124 474.459 512.621 475.397C494.584 479.619 476.005 482.581 457.389 483.532C448.068 484.001 438.717 483.976 429.403 483.421C427.077 483.235 424.745 483.124 422.42 482.884C420.094 482.649 417.787 482.482 415.4 482.112C413.038 481.748 410.663 481.217 408.337 480.409C406.018 479.6 403.717 478.458 401.737 476.742C399.72 475.064 398.252 472.669 397.58 470.064C396.957 467.417 397.364 464.602 398.419 462.226C400.627 457.474 404.865 454.122 409.701 452.616C410.916 452.289 412.217 452.018 413.451 451.968C414.068 451.913 414.691 451.9 415.308 451.919C415.931 451.907 416.541 451.962 417.158 452.011C419.613 452.221 422 452.801 424.277 453.598C428.835 455.19 432.962 457.548 436.947 459.955C437.6 460.35 437.81 461.201 437.415 461.856C437.045 462.479 436.2 462.689 435.552 462.306Z" fill="#233940"/>
</g>
<defs>
<filter id="filter0_d_29_866" x="0" y="0.0067749" width="628.004" height="516.993" filterUnits="userSpaceOnUse" color-interpolation-filters="sRGB">
<feFlood flood-opacity="0" result="BackgroundImageFix"/>
<feColorMatrix in="SourceAlpha" type="matrix" values="0 0 0 0 0 0 0 0 0 0 0 0 0 0 0 0 0 0 127 0" result="hardAlpha"/>
<feOffset dx="5" dy="7"/>
<feGaussianBlur stdDeviation="10.5"/>
<feComposite in2="hardAlpha" operator="out"/>
<feColorMatrix type="matrix" values="0 0 0 0 0 0 0 0 0 0 0 0 0 0 0 0 0 0 0.19 0"/>
<feBlend mode="normal" in2="BackgroundImageFix" result="effect1_dropShadow_29_866"/>
<feBlend mode="normal" in="SourceGraphic" in2="effect1_dropShadow_29_866" result="shape"/>
</filter>
<filter id="filter1_d_29_866" x="0.47583" y="0.0067749" width="372.95" height="474.303" filterUnits="userSpaceOnUse" color-interpolation-filters="sRGB">
<feFlood flood-opacity="0" result="BackgroundImageFix"/>
<feColorMatrix in="SourceAlpha" type="matrix" values="0 0 0 0 0 0 0 0 0 0 0 0 0 0 0 0 0 0 127 0" result="hardAlpha"/>
<feOffset dx="5" dy="7"/>
<feGaussianBlur stdDeviation="10.5"/>
<feComposite in2="hardAlpha" operator="out"/>
<feColorMatrix type="matrix" values="0 0 0 0 0 0 0 0 0 0 0 0 0 0 0 0 0 0 0.19 0"/>
<feBlend mode="normal" in2="BackgroundImageFix" result="effect1_dropShadow_29_866"/>
<feBlend mode="normal" in="SourceGraphic" in2="effect1_dropShadow_29_866" result="shape"/>
</filter>
</defs>
</svg>
