<svg width="140" height="140" viewBox="0 0 140 140" fill="none" xmlns="http://www.w3.org/2000/svg">
<rect width="140" height="140" rx="13" fill="#E61B43"/>
<g clip-path="url(#clip0_29_343)">
<path d="M69.9216 78.5424C68.569 81.4265 67.2706 83.9832 66.1919 86.6289C65.8608 87.439 66.1177 88.499 66.1405 89.4441C66.2061 92.2076 66.6371 95.0142 66.286 97.7203C65.644 102.661 61.9513 105.873 56.6834 106.674C52.3515 107.335 47.5516 104.862 45.4456 100.886C42.0839 94.5402 44.4182 87.7493 51.1016 84.641C52.4713 84.0033 53.9496 83.5868 55.4021 83.153C58.1816 82.3228 60.339 80.8376 61.5118 78.0282C62.5962 75.4284 63.8033 72.8803 65.0333 70.3467C65.4299 69.5279 65.3871 68.8902 65.0304 68.0686C60.8155 58.3935 56.6063 48.7155 52.4885 39.0001C51.3099 36.2223 50.411 33.2835 50.9132 30.2155C51.1073 29.0263 51.7008 27.7336 52.5084 26.8631C53.5472 25.7428 54.6915 26.145 55.3336 27.5497C60.0165 37.8022 64.6937 48.0577 69.3709 58.3102C69.5079 58.6118 69.6591 58.9106 69.9159 59.4449C70.3611 58.5429 70.7464 57.8161 71.086 57.0692C75.5748 47.2533 80.0465 37.4288 84.5611 27.6244C84.8464 27.0039 85.5741 26.0042 85.8652 26.0818C86.7926 26.3231 87.937 26.7827 88.4107 27.5325C89.7091 29.5922 89.6207 32.0282 88.8816 34.1999C87.0723 39.5287 85.1432 44.8288 82.9773 50.0197C80.4746 56.0121 77.6894 61.8838 74.967 67.7785C74.5104 68.7696 74.4333 69.5624 74.9299 70.5707C76.157 73.0527 77.3298 75.5692 78.38 78.1287C79.5928 81.0876 81.8044 82.6388 84.758 83.5494C86.9154 84.213 89.1184 85.0231 90.9961 86.244C96.1556 89.605 97.4911 95.7525 94.5233 101.262C91.8094 106.298 85.6597 108.415 80.2491 106.157C75.7746 104.293 73.4773 100.892 73.4431 96.034C73.4288 94.0777 73.543 92.1013 73.8341 90.1709C74.1166 88.2864 73.8826 86.6203 72.9722 84.9398C71.9078 82.9778 71.0374 80.9094 69.9216 78.5424ZM84.7038 102.225C88.1596 102.193 91.0418 99.2859 91.0646 95.8071C91.0875 92.2766 88.014 89.2201 84.4869 89.2689C80.974 89.3177 78.1517 92.2766 78.1831 95.876C78.2173 99.4582 81.091 102.256 84.7038 102.225ZM61.7829 95.5313C61.8286 91.9261 59.0006 88.9701 55.4848 88.95C51.9805 88.9271 48.9927 91.8457 48.9356 95.3446C48.8757 98.8665 51.7865 101.866 55.2965 101.9C58.9007 101.932 61.7373 99.1451 61.7829 95.5313ZM67.3647 69.4446C67.3419 70.9298 68.4463 72.1105 69.9102 72.1679C71.4027 72.2254 72.6184 71.0045 72.6098 69.4619C72.6013 67.9968 71.4427 66.8276 69.993 66.819C68.549 66.8104 67.3876 67.9738 67.3647 69.4446Z" fill="white"/>
</g>
<defs>
<clipPath id="clip0_29_343">
<rect width="80.9804" height="52.1569" fill="white" transform="translate(43.9215 107.059) rotate(-90)"/>
</clipPath>
</defs>
</svg>
