<svg width="140" height="140" viewBox="0 0 140 140" fill="none" xmlns="http://www.w3.org/2000/svg">
<rect width="140" height="140" rx="13" fill="#E61B43"/>
<path fill-rule="evenodd" clip-rule="evenodd" d="M48.9771 38.0036C48.9704 38.0123 48.9642 38.0215 48.9588 38.0311L33.4216 63.4575L33.4261 63.4621C33.4333 63.4661 33.441 63.4692 33.449 63.4713C33.4756 63.4802 33.5033 63.4856 33.5314 63.4873L60.6781 65.4226C60.7238 65.4271 60.7513 65.4226 60.765 65.4226C60.7901 65.418 60.8132 65.406 60.8314 65.3883L49.2654 38.0288L49.2562 38.0059C49.2178 37.9864 49.1757 37.9755 49.1327 37.9739C49.0844 37.9693 49.0358 37.9763 48.9908 37.9945L48.984 37.9968L48.9794 38.0036H48.9771ZM53.4791 36.2468C51.999 32.7422 47.0441 32.3899 45.0562 35.6451L29.4915 61.1128C27.6957 64.05 29.702 67.8017 33.2042 68.051L60.3487 69.9863C63.8487 70.2379 66.397 66.8111 65.0611 63.6497L53.4791 36.2468Z" fill="white"/>
<path fill-rule="evenodd" clip-rule="evenodd" d="M92.8758 60.8497C94.6783 60.8497 96.4631 60.4947 98.1284 59.8049C99.7936 59.1151 101.307 58.1041 102.581 56.8296C103.856 55.5551 104.867 54.042 105.557 52.3767C106.246 50.7115 106.601 48.9267 106.601 47.1242C106.601 45.3217 106.246 43.5369 105.557 41.8717C104.867 40.2064 103.856 38.6933 102.581 37.4188C101.307 36.1443 99.7936 35.1333 98.1284 34.4435C96.4631 33.7537 94.6783 33.3987 92.8758 33.3987C89.2356 33.3987 85.7445 34.8448 83.1705 37.4188C80.5964 39.9928 79.1504 43.484 79.1504 47.1242C79.1504 50.7644 80.5964 54.2556 83.1705 56.8296C85.7445 59.4036 89.2356 60.8497 92.8758 60.8497V60.8497ZM92.8758 65.4249C97.7295 65.4249 102.384 63.4968 105.816 60.0647C109.248 56.6327 111.176 51.9778 111.176 47.1242C111.176 42.2706 109.248 37.6157 105.816 34.1837C102.384 30.7516 97.7295 28.8235 92.8758 28.8235C88.0222 28.8235 83.3674 30.7516 79.9353 34.1837C76.5033 37.6157 74.5752 42.2706 74.5752 47.1242C74.5752 51.9778 76.5033 56.6327 79.9353 60.0647C83.3674 63.4968 88.0222 65.4249 92.8758 65.4249V65.4249Z" fill="white"/>
<path fill-rule="evenodd" clip-rule="evenodd" d="M102.671 49.3775C102.535 49.9682 102.17 50.4807 101.656 50.8024C101.142 51.1241 100.522 51.2287 99.9307 51.0932L84.7961 47.616C84.2046 47.4801 83.6912 47.1148 83.3691 46.6004C83.0469 46.0861 82.9422 45.4648 83.0781 44.8732C83.214 44.2817 83.5794 43.7684 84.0937 43.4462C84.6081 43.124 85.2294 43.0193 85.8209 43.1553L100.956 46.6347C101.248 46.7021 101.525 46.8265 101.77 47.0009C102.014 47.1752 102.222 47.396 102.381 47.6507C102.541 47.9054 102.648 48.189 102.698 48.4853C102.748 48.7816 102.739 49.0847 102.671 49.3775V49.3775Z" fill="white"/>
<path fill-rule="evenodd" clip-rule="evenodd" d="M86.3769 77.5399L61.4971 89.1425C60.3961 89.6427 59.4052 90.3562 58.5816 91.2416C57.758 92.1271 57.1181 93.1671 56.6988 94.3014C56.2796 95.4357 56.0894 96.6419 56.1392 97.8502C56.189 99.0584 56.4777 100.245 56.9889 101.341C57.5 102.437 58.2232 103.421 59.1169 104.235C60.0105 105.05 61.0568 105.68 62.1952 106.088C63.3337 106.495 64.5417 106.674 65.7494 106.612C66.9571 106.55 68.1406 106.249 69.2314 105.727L94.1112 94.1272C96.286 93.0864 97.9623 91.2294 98.7755 88.9597C99.5888 86.6899 99.4734 84.1909 98.4544 82.0058C97.4354 79.8207 95.5951 78.1261 93.3336 77.2903C91.072 76.4544 88.572 76.545 86.3769 77.5422V77.5399ZM59.5641 84.9951C56.2649 86.5334 53.7118 89.3194 52.4666 92.74C51.2214 96.1607 51.3861 99.9359 52.9244 103.235C54.4627 106.534 57.2486 109.087 60.6693 110.333C64.09 111.578 67.8652 111.413 71.1644 109.875L96.0442 98.2723C99.3434 96.734 101.896 93.948 103.142 90.5274C104.387 87.1067 104.222 83.3315 102.684 80.0322C101.146 76.733 98.3597 74.1799 94.939 72.9347C91.5183 71.6896 87.7431 71.8542 84.4438 73.3925L59.5641 84.9951V84.9951Z" fill="white"/>
<path fill-rule="evenodd" clip-rule="evenodd" d="M71.7157 84.3797L61.4971 89.1402C59.2975 90.1658 57.5954 92.0232 56.7653 94.3038C55.9352 96.5844 56.045 99.1014 57.0706 101.301C58.0963 103.501 59.9537 105.203 62.2343 106.033C64.5149 106.863 67.0318 106.753 69.2314 105.727L79.4478 100.965L71.7157 84.3797V84.3797ZM73.9278 78.2993L85.5282 103.179L71.1644 109.875C69.5308 110.637 67.7632 111.069 65.9624 111.148C64.1616 111.226 62.363 110.949 60.6693 110.333C58.9756 109.716 57.4198 108.772 56.091 107.554C54.7621 106.336 53.6861 104.869 52.9244 103.235C52.1627 101.602 51.7303 99.8338 51.6517 98.0331C51.5732 96.2323 51.8501 94.4337 52.4666 92.74C53.7118 89.3193 56.2649 86.5334 59.5641 84.9951L73.9278 78.2993V78.2993Z" fill="white"/>
</svg>
