<svg width="140" height="140" viewBox="0 0 140 140" fill="none" xmlns="http://www.w3.org/2000/svg">
<rect width="140" height="140" rx="13" fill="#E61B43"/>
<path d="M87.0806 51.2418V44.0436C87.0806 41.8005 86.6388 39.5794 85.7804 37.5071C84.922 35.4348 83.6639 33.5518 82.0778 31.9657C80.4917 30.3797 78.6088 29.1215 76.5364 28.2631C74.4641 27.4048 72.243 26.963 70 26.963C67.7569 26.963 65.5358 27.4048 63.4635 28.2631C61.3912 29.1215 59.5082 30.3797 57.9222 31.9657C56.3361 33.5518 55.0779 35.4348 54.2195 37.5071C53.3612 39.5794 52.9194 41.8005 52.9194 44.0436V61.1242C52.9194 61.7713 53.1764 62.392 53.634 62.8496C54.0916 63.3072 54.7123 63.5643 55.3594 63.5643C56.0066 63.5643 56.6272 63.3072 57.0848 62.8496C57.5425 62.392 57.7995 61.7713 57.7995 61.1242V56.122H77.3202V51.2418H57.7995V44.0436C57.7995 40.8078 59.0849 37.7046 61.373 35.4166C63.661 33.1285 66.7642 31.8431 70 31.8431C73.2357 31.8431 76.339 33.1285 78.627 35.4166C80.915 37.7046 82.2004 40.8078 82.2004 44.0436V61.0022C82.2004 61.6493 82.4575 62.27 82.9151 62.7276C83.3727 63.1852 83.9933 63.4423 84.6405 63.4423C85.2876 63.4423 85.9083 63.1852 86.3659 62.7276C86.8235 62.27 87.0806 61.6493 87.0806 61.0022V56.122H99.281V100.044H40.7189V56.122H48.0392V51.2418H35.8387V100.263C35.8387 101.499 36.3298 102.685 37.2038 103.559C38.0778 104.433 39.2633 104.924 40.4993 104.924H99.5006C100.737 104.924 101.922 104.433 102.796 103.559C103.67 102.685 104.161 101.499 104.161 100.263V51.2418H87.0806Z" fill="white"/>
</svg>
