<svg width="140" height="140" viewBox="0 0 140 140" fill="none" xmlns="http://www.w3.org/2000/svg">
<rect width="140" height="140" rx="13" fill="#E61B43"/>
<g clip-path="url(#clip0_29_326)">
<path d="M59.1879 40.4006L54.3872 45.2013L48.8115 39.6224L53.4489 34.985L50.0317 31.5646L31.5686 50.0277L34.9858 53.4449L39.6232 48.8075L45.2021 54.3864L40.4014 59.1872L81.9073 100.693L99.1982 101.09L106.529 108.421L109.905 108.056L101.072 99.223L100.675 81.9321L59.1879 40.4006ZM59.1879 45.8707L80.274 66.9567L66.9895 80.2411L61.6219 74.88L68.2834 68.2185L65.4651 65.4002L58.8036 72.0617L53.8396 67.0976L60.501 60.4362L57.6827 57.6179L51.0213 64.2793L45.9163 59.1743L59.1879 45.8707Z" fill="white"/>
</g>
<defs>
<clipPath id="clip0_29_326">
<rect width="76.8627" height="76.8627" fill="white" transform="translate(31.5686 31.5686)"/>
</clipPath>
</defs>
</svg>
