<svg width="140" height="140" viewBox="0 0 140 140" fill="none" xmlns="http://www.w3.org/2000/svg">
<rect width="140" height="140" rx="13" fill="#E61B43"/>
<path d="M115.292 49.8487C115.3 48.8139 115.015 47.7975 114.47 46.9143C113.925 46.0311 113.141 45.3162 112.207 44.8503C111.322 44.38 110.32 44.1674 109.318 44.2373C108.315 44.3071 107.353 44.6565 106.543 45.2449L94.0182 53.1634V43.6928C94.0182 42.2974 93.4578 40.9591 92.4604 39.9724C91.463 38.9857 90.1102 38.4314 88.6997 38.4314H40.8331C38.012 38.4314 35.3064 39.54 33.3116 41.5134C31.3168 43.4869 30.1961 46.1634 30.1961 48.9542V91.0457C30.1961 93.8366 31.3168 96.5131 33.3116 98.4865C35.3064 100.46 38.012 101.569 40.8331 101.569H88.6997C90.1102 101.569 91.463 101.014 92.4604 100.028C93.4578 99.0409 94.0182 97.7026 94.0182 96.3072V86.8366L106.357 94.7288C107.183 95.354 108.17 95.7353 109.205 95.8284C110.241 95.9215 111.282 95.7227 112.207 95.2549C113.158 94.7812 113.953 94.0499 114.499 93.1462C115.045 92.2425 115.32 91.2038 115.292 90.1513V49.8487ZM109.788 90.4407C109.628 90.4407 109.495 90.4407 109.282 90.2828L88.6997 77.2871V96.3072H40.8331C39.4226 96.3072 38.0698 95.7529 37.0724 94.7661C36.075 93.7794 35.5146 92.4412 35.5146 91.0457V48.9542C35.5146 47.5588 36.075 46.2206 37.0724 45.2338C38.0698 44.2471 39.4226 43.6928 40.8331 43.6928H88.6997V62.7129L109.442 49.5593C109.492 49.523 109.553 49.5034 109.615 49.5034C109.677 49.5034 109.737 49.523 109.788 49.5593C109.846 49.5816 109.895 49.6217 109.929 49.6738C109.962 49.7258 109.978 49.7871 109.974 49.8487V90.1513C109.978 90.2129 109.962 90.2742 109.929 90.3262C109.895 90.3783 109.846 90.4184 109.788 90.4407Z" fill="white"/>
</svg>
